<?xml version="1.0" encoding="UTF-8"?>
<svg width="44px" height="44px" viewBox="0 0 44 44" version="1.1" xmlns="http://www.w3.org/2000/svg" xmlns:xlink="http://www.w3.org/1999/xlink">
    <!-- Generator: Sketch 59.1 (86144) - https://sketch.com -->
    <title>下雨</title>
    <desc>Created with Sketch.</desc>
    <g id="图标库" stroke="none" stroke-width="1" fill="none" fill-rule="evenodd">
        <g id="VDCP" transform="translate(-1415.000000, -244.000000)">
            <g id="首页" transform="translate(462.000000, 95.000000)">
                <g id="下雨" transform="translate(947.000000, 143.000000)">
                    <rect id="矩形" fill="#000000" opacity="0" x="0" y="0" width="56" height="56"></rect>
                    <path d="M15.166663,35.3333818 L18.8333325,35.3333818 L18.8333325,45.4167412 L15.166663,45.4167412 L15.166663,35.3333818 Z M22.5000192,33.5000449 L26.1666887,33.5000449 L26.1666887,39.0000449 L22.5000192,39.0000449 L22.5000192,33.5000449 Z M22.5000192,44.5000577 L26.1666887,44.5000577 L26.1666887,50.0000577 L22.5000192,50.0000577 L22.5000192,44.5000577 Z M37.1666886,44.5000577 L40.8333581,44.5000577 L40.8333581,50.0000577 L37.1666886,50.0000577 L37.1666886,44.5000577 Z M40.8333581,33.5000449 L44.5000276,33.5000449 L44.5000276,39.0000449 L40.8333581,39.0000449 L40.8333581,33.5000449 Z M31.6666951,35.3333818 L35.3333646,35.3333818 L35.3333646,42.666738 L31.6666951,42.666738 L31.6666951,35.3333818 Z" id="形状" fill="#259ADE" fill-rule="nonzero"></path>
                    <path d="M16.0833594,31.6666822 C10.9500058,31.6666822 6.91669638,27.6333428 6.91669638,22.5000192 C6.91669638,17.5500134 10.7667009,13.700009 15.5333587,13.3333562 C17.7333613,8.93335107 22.5000192,6 28.0000256,6 C34.2333805,6 39.550039,9.85000448 41.200041,15.166663 C45.6000461,15.3499967 49.0833978,19.0166675 49.0833978,23.4166726 C49.0833978,27.6333428 45.7833939,31.1166816 41.7500416,31.6666822 L16.0833594,31.6666822 Z" id="路径" fill="#FFFFFF" fill-rule="nonzero"></path>
                </g>
            </g>
        </g>
    </g>
</svg>