<?xml version="1.0" encoding="UTF-8"?>
<svg width="358px" height="341px" viewBox="0 0 358 341" version="1.1" xmlns="http://www.w3.org/2000/svg" xmlns:xlink="http://www.w3.org/1999/xlink">
    <!-- Generator: Sketch 59.1 (86144) - https://sketch.com -->
    <title>地图弹出</title>
    <desc>Created with Sketch.</desc>
    <defs>
        <polygon id="path-1" points="25 0 112 0 112 22 96 38 8 38 8 17"></polygon>
        <filter x="-9.6%" y="-21.1%" width="119.2%" height="152.6%" filterUnits="objectBoundingBox" id="filter-2">
            <feOffset dx="0" dy="2" in="SourceAlpha" result="shadowOffsetOuter1"></feOffset>
            <feGaussianBlur stdDeviation="3" in="shadowOffsetOuter1" result="shadowBlurOuter1"></feGaussianBlur>
            <feComposite in="shadowBlurOuter1" in2="SourceAlpha" operator="out" result="shadowBlurOuter1"></feComposite>
            <feColorMatrix values="0 0 0 0 0.0862745098   0 0 0 0 0.643137255   0 0 0 0 0.980392157  0 0 0 0.561625874 0" type="matrix" in="shadowBlurOuter1"></feColorMatrix>
        </filter>
    </defs>
    <g id="图标库" stroke="none" stroke-width="1" fill="none" fill-rule="evenodd">
        <g id="VDCP" transform="translate(-579.000000, -457.000000)">
            <g id="首页" transform="translate(473.000000, 95.000000)">
                <g id="地图弹出" transform="translate(106.000000, 366.000000)">
                    <path d="M8.41421356,7 L1,14.4142136 L1,313.585786 L19.4142136,332 L354.5,332 L357,328.666667 L357,307.236068 L354,301.236068 L354,34.5857864 L357,31.5857864 L357,10.3333333 L354.5,7 L8.41421356,7 Z" id="矩形备份-23" stroke="#218ECE" stroke-width="2" fill-opacity="0.879944274" fill="#0D1F2E"></path>
                    <path d="M2.5,322.62132 L2.5,331.5 L11.3786797,331.5 L2.5,322.62132 Z" id="路径-5备份" stroke="#218ECE" stroke-width="3" fill="#0D1F2E"></path>
                    <polygon id="路径-6备份" fill="#218ECE" points="0 15 0 6 9 6"></polygon>
                    <g id="矩形备份-24">
                        <use fill="black" fill-opacity="1" filter="url(#filter-2)" xlink:href="#path-1"></use>
                        <path stroke="#218ECE" stroke-width="2" d="M25.4142136,1 L9,17.4142136 L9,37 L95.5857864,37 L111,21.5857864 L111,1 L25.4142136,1 Z" stroke-linejoin="square" fill="#0D1F2E" fill-rule="evenodd"></path>
                    </g>
                    <polygon id="矩形备份-25" fill="#218ECE" points="299 3 320 3 322 2 335 2 337 3 353 3 358 8 358 39 356 41 356 49 355 50 353 50 353 34 356 30 356 11 352 8 296 8"></polygon>
                    <polygon id="矩形备份-26" fill="#218ECE" transform="translate(327.000000, 313.000000) scale(1, -1) translate(-327.000000, -313.000000) " points="299 290 320 290 322 289 335 289 337 290 353 290 358 295 358 326 356 328 356 336 355 337 353 337 353 321 356 317 356 298 352 295 296 295"></polygon>
                </g>
            </g>
        </g>
    </g>
</svg>