<?xml version="1.0" encoding="UTF-8"?>
<svg width="187px" height="109px" viewBox="0 0 187 109" version="1.1" xmlns="http://www.w3.org/2000/svg" xmlns:xlink="http://www.w3.org/1999/xlink">
    <!-- Generator: Sketch 59.1 (86144) - https://sketch.com -->
    <title>地图弹出小框</title>
    <desc>Created with Sketch.</desc>
    <defs>
        <polygon id="path-1" points="25 0 112 0 112 22 96 38 8 38 8 17"></polygon>
        <filter x="-9.6%" y="-21.1%" width="119.2%" height="152.6%" filterUnits="objectBoundingBox" id="filter-2">
            <feOffset dx="0" dy="2" in="SourceAlpha" result="shadowOffsetOuter1"></feOffset>
            <feGaussianBlur stdDeviation="3" in="shadowOffsetOuter1" result="shadowBlurOuter1"></feGaussianBlur>
            <feComposite in="shadowBlurOuter1" in2="SourceAlpha" operator="out" result="shadowBlurOuter1"></feComposite>
            <feColorMatrix values="0 0 0 0 0.0862745098   0 0 0 0 0.643137255   0 0 0 0 0.980392157  0 0 0 0.561625874 0" type="matrix" in="shadowBlurOuter1"></feColorMatrix>
        </filter>
    </defs>
    <g id="图标库" stroke="none" stroke-width="1" fill="none" fill-rule="evenodd">
        <g id="VDCP" transform="translate(-1021.000000, -467.000000)">
            <g id="首页" transform="translate(473.000000, 95.000000)">
                <g id="地图弹出小框" transform="translate(548.000000, 376.000000)">
                    <path d="M8.41421356,7 L1,14.4142136 L1,85.5857864 L19.4142136,104 L183.5,104 L186,100.666667 L186,79.236068 L183,73.236068 L183,34.5857864 L186,31.5857864 L186,10.3333333 L183.5,7 L8.41421356,7 Z" id="矩形备份-23" stroke="#218ECE" stroke-width="2" fill-opacity="0.879944274" fill="#0D1F2E"></path>
                    <path d="M2.5,94.6213203 L2.5,103.5 L11.3786797,103.5 L2.5,94.6213203 Z" id="路径-5备份" stroke="#218ECE" stroke-width="3" fill="#0D1F2E"></path>
                    <polygon id="路径-6备份" fill="#218ECE" points="0 15 0 6 9 6"></polygon>
                    <g id="矩形备份-24">
                        <use fill="black" fill-opacity="1" filter="url(#filter-2)" xlink:href="#path-1"></use>
                        <path stroke="#218ECE" stroke-width="2" d="M25.4142136,1 L9,17.4142136 L9,37 L95.5857864,37 L111,21.5857864 L111,1 L25.4142136,1 Z" stroke-linejoin="square" fill="#0D1F2E" fill-rule="evenodd"></path>
                    </g>
                </g>
            </g>
        </g>
    </g>
</svg>