<?xml version="1.0" encoding="UTF-8"?>
<svg width="22px" height="21px" viewBox="0 0 22 21" version="1.1" xmlns="http://www.w3.org/2000/svg" xmlns:xlink="http://www.w3.org/1999/xlink">
    <!-- Generator: Sketch 59.1 (86144) - https://sketch.com -->
    <title>形状结合</title>
    <desc>Created with Sketch.</desc>
    <g id="页面-1" stroke="none" stroke-width="1" fill="none" fill-rule="evenodd">
        <g id="VDCP可视化决策指挥系统首页" transform="translate(-1809.000000, -26.000000)" fill="#D1E5FA">
            <g id="编组" transform="translate(-179.000000, -22.000000)">
                <g id="顶部" transform="translate(70.000000, 0.000000)">
                    <path d="M1929.21094,48 C1935.00993,48 1939.71094,52.7010101 1939.71094,58.5 C1939.71094,64.2989899 1935.00993,69 1929.21094,69 C1923.41195,69 1918.71094,64.2989899 1918.71094,58.5 C1918.71094,52.7010101 1923.41195,48 1929.21094,48 Z M1929.44094,62.066 C1928.48694,62.066 1927.69494,62.858 1927.69494,63.812 C1927.69494,64.766 1928.48694,65.54 1929.44094,65.54 C1930.37694,65.54 1931.16894,64.766 1931.16894,63.812 C1931.16894,62.858 1930.37694,62.066 1929.44094,62.066 Z M1929.94494,50.78 C1927.08294,50.78 1925.06694,52.13 1924.52694,55.19 L1927.46094,55.694 C1927.69494,54.002 1928.32494,52.994 1929.67494,52.994 C1930.70094,52.994 1931.43894,53.75 1931.43894,54.92 C1931.43894,55.964 1931.04294,56.684 1929.87294,57.746 C1928.64894,58.88 1928.23494,59.654 1928.23494,60.806 L1930.52094,60.806 C1930.71894,60.068 1931.20494,59.528 1932.42894,58.628 C1934.17494,57.35 1934.76894,56.36 1934.76894,54.884 C1934.76894,52.184 1932.93294,50.78 1929.94494,50.78 Z" id="形状结合"></path>
                </g>
            </g>
        </g>
    </g>
</svg>