<?xml version="1.0" encoding="UTF-8"?>
<svg width="22px" height="22px" viewBox="0 0 22 22" version="1.1" xmlns="http://www.w3.org/2000/svg" xmlns:xlink="http://www.w3.org/1999/xlink">
    <!-- Generator: Sketch 59.1 (86144) - https://sketch.com -->
    <title>新增事件处置</title>
    <desc>Created with Sketch.</desc>
    <g id="图标库" stroke="none" stroke-width="1" fill="none" fill-rule="evenodd">
        <g id="VDCP" transform="translate(-1516.000000, -255.000000)" fill-rule="nonzero">
            <g id="首页" transform="translate(462.000000, 95.000000)">
                <g id="新增事件处置" transform="translate(1053.000000, 159.000000)">
                    <rect id="矩形" fill="#000000" opacity="0" x="0" y="0" width="24" height="24"></rect>
                    <path d="M19.409625,4.55784375 C17.4281484,2.58595313 14.7945,1.5 11.9922656,1.5 C9.190125,1.5 6.55584375,2.58592969 4.57429687,4.55782031 C2.592,6.53036719 1.5,9.15419531 1.5,11.9452031 C1.5,14.7368906 2.592,17.3599219 4.57347656,19.3324453 C6.55507031,21.3043125 9.18939844,22.3902656 11.9916094,22.3902656 C14.7937969,22.3902656 17.4281719,21.3043125 19.4089688,19.3324453 C21.3920391,17.3592422 22.4839219,14.7354141 22.4832425,11.9444297 C22.4839453,9.15335156 21.3927188,6.53036719 19.409625,4.55782031 L19.409625,4.55784375 Z" id="路径" fill="#FF7C25"></path>
                    <path d="M17.2418203,12.7450078 L12.7449844,12.7450078 L12.7449844,17.2417969 C12.7449844,17.6562422 12.4092188,17.9912109 11.9954531,17.9912109 C11.581875,17.9912109 11.2460859,17.6562422 11.2460859,17.2417969 L11.2460859,12.7450078 L6.74934375,12.7450078 C6.33571875,12.7450078 6,12.4092891 6,11.9956641 C6,11.5819219 6.33571875,11.2461328 6.74934375,11.2461328 L11.2461328,11.2461328 L11.2461328,6.74941406 C11.2461328,6.33576562 11.5818984,6 11.9955,6 C12.4092656,6 12.7450313,6.33576562 12.7450313,6.74939063 L12.7450313,11.2461328 L17.2417969,11.2461328 C17.6562188,11.2461328 17.9911641,11.5819219 17.9911641,11.9956641 C17.9911641,12.4092891 17.6562187,12.7450078 17.2417969,12.7450078 L17.2418203,12.7450078 Z" id="路径" fill="#FFFFFF"></path>
                </g>
            </g>
        </g>
    </g>
</svg>