<?xml version="1.0" encoding="UTF-8"?>
<svg width="16px" height="16px" viewBox="0 0 16 16" version="1.1" xmlns="http://www.w3.org/2000/svg" xmlns:xlink="http://www.w3.org/1999/xlink">
    <!-- Generator: Sketch 59.1 (86144) - https://sketch.com -->
    <title>日期</title>
    <desc>Created with Sketch.</desc>
    <g id="图标库" stroke="none" stroke-width="1" fill="none" fill-rule="evenodd">
        <g id="VDCP" transform="translate(-579.000000, -260.000000)" fill-rule="nonzero">
            <g id="首页" transform="translate(569.000000, 95.000000)">
                <g id="日期" transform="translate(10.000000, 165.000000)">
                    <rect id="矩形" fill="#000000" opacity="0" x="0" y="0" width="16" height="16"></rect>
                    <path d="M1.99975003,16 C0.895318586,16 0,15.1046814 0,14.00025 L0,3.0016248 C0,1.89719335 0.895318586,1.00187477 1.99975003,1.00187477 L2.99962505,1.00187477 L2.99962505,0.00199975 L4.99937508,0.00199975 L4.99937508,1.00187477 L10.9986252,1.00187477 L10.9986252,0.00199975 L12.9983752,0.00199975 L12.9983752,1.00187477 L13.9982502,1.00187477 C15.1026817,1.00187477 15.9980003,1.89719335 15.9980003,3.0016248 L15.9980003,14.00025 C15.9980003,15.1046814 15.1026817,16 13.9982502,16 L1.99975003,16 Z M1.99975003,14.00025 L13.9982502,14.00025 L13.9982502,7.00112486 L1.99975003,7.00112486 L1.99975003,14.00025 Z M1.99975003,5.00137483 L13.9982502,5.00137483 L13.9982502,3.0016248 L12.9983752,3.0016248 L12.9983752,4.00149981 L10.9986252,4.00149981 L10.9986252,3.0016248 L4.99937508,3.0016248 L4.99937508,4.00149981 L2.99962505,4.00149981 L2.99962505,3.0016248 L1.99975003,3.0016248 L1.99975003,5.00137483 Z M10.9986252,13.000375 L10.9986252,11.0006249 L12.9983752,11.0006249 L12.9983752,13.000375 L10.9986252,13.000375 Z M6.99912511,13.000375 L6.99912511,11.0006249 L8.99887514,11.0006249 L8.99887514,13.000375 L6.99912511,13.000375 Z M2.99962505,13.000375 L2.99962505,11.0006249 L4.99937508,11.0006249 L4.99937508,13.000375 L2.99962505,13.000375 Z M10.9986252,10.0007499 L10.9986252,8.00099988 L12.9983752,8.00099988 L12.9983752,10.0007499 L10.9986252,10.0007499 Z M6.99912511,10.0007499 L6.99912511,8.00099988 L8.99887514,8.00099988 L8.99887514,10.0007499 L6.99912511,10.0007499 Z M2.99962505,10.0007499 L2.99962505,8.00099988 L4.99937508,8.00099988 L4.99937508,10.0007499 L2.99962505,10.0007499 Z" id="形状" fill="#8F9BB3"></path>
                </g>
            </g>
        </g>
    </g>
</svg>