<?xml version="1.0" encoding="UTF-8"?>
<svg width="20px" height="20px" viewBox="0 0 20 20" version="1.1" xmlns="http://www.w3.org/2000/svg" xmlns:xlink="http://www.w3.org/1999/xlink">
    <!-- Generator: Sketch 59.1 (86144) - https://sketch.com -->
    <title>退出</title>
    <desc>Created with Sketch.</desc>
    <g id="页面-1" stroke="none" stroke-width="1" fill="none" fill-rule="evenodd">
        <g id="VDCP可视化决策指挥系统首页" transform="translate(-1861.000000, -27.000000)" fill-rule="nonzero">
            <g id="编组" transform="translate(-179.000000, -22.000000)">
                <g id="顶部" transform="translate(70.000000, 0.000000)">
                    <g id="退出" transform="translate(1968.000000, 46.000000)">
                        <rect id="矩形" fill="#000000" opacity="0" x="0" y="0" width="24" height="24"></rect>
                        <path d="M12,22.635 C7.85807695,22.7147018 4.196752,19.9567543 3.13022067,15.9537067 C2.06368935,11.9506592 3.86747516,7.73664309 7.5,5.745 L8.625,7.695 C5.95569781,9.23612234 4.6543015,12.377971 5.45204512,15.3551907 C6.24978875,18.3324104 8.94775533,20.402633 12.03,20.402633 C15.1122447,20.402633 17.8102113,18.3324104 18.6079549,15.3551907 C19.4056985,12.377971 18.1043022,9.23612234 15.435,7.695 L16.5,5.745 C20.1325248,7.73664309 21.9363107,11.9506592 20.8697793,15.9537067 C19.803248,19.9567543 16.141923,22.7147018 12,22.635 L12,22.635 Z" id="路径" fill="#30C7FF"></path>
                        <polygon id="路径" fill="#30C7FF" points="10.5 3 13.5 3 13.5 12 10.5 12"></polygon>
                    </g>
                </g>
            </g>
        </g>
    </g>
</svg>