<?xml version="1.0" standalone="no"?>
<!DOCTYPE svg PUBLIC "-//W3C//DTD SVG 1.1//EN" "http://www.w3.org/Graphics/SVG/1.1/DTD/svg11.dtd" >
<!--
2013-9-30: Created.
-->
<svg>
<metadata>
Created by iconfont
</metadata>
<defs>

<font id="iconfont" horiz-adv-x="1024" >
  <font-face
    font-family="iconfont"
    font-weight="500"
    font-stretch="normal"
    units-per-em="1024"
    ascent="896"
    descent="-128"
  />
    <missing-glyph />
    
    <glyph glyph-name="huamian8" unicode="&#59029;" d="M682.688 896H0v-1024h1024V896h-341.312zM576 832v-128H448V832h128z m192-576v-128h-128v128h128zM192 640v-128H64V640h128z m-128-384h128v-128H64v128z m384 0h128v-128H448v128z m-64 0v-128H256v128h128z m192 192v-128H448V448h128zM384 448v-128H256V448h128z m0 192v-128H256V640h128z m192 0v-128H448V640h128zM64 448h128v-128H64V448z m192 384h128v-128H256V832z m384-384h128v-128h-128V448z m0 192h128v-128h-128V640z m0 192h128v-128h-128V832z m192 0h128v-128h-128V832z m0-192h128v-128h-128V640z m0-192h128v-128h-128V448z m0-192h128v-128h-128v128z m0-192h128v-128h-128v128z m-192 0h128v-128h-128v128z m-192 0h128v-128H448v128z m-192 0h128v-128H256v128z m-192 0h128v-128H64v128zM64 832h128v-128H64z"  horiz-adv-x="1024" />

    
    <glyph glyph-name="huamian7" unicode="&#59028;" d="M840.231385 896H0v-1024h1260.307692V896h-420.076307zM708.923077 817.230769v-157.538461H551.384615V817.230769h157.538462z m236.307692-708.923077v-157.538461h-157.538461v157.538461h157.538461zM236.307692 580.923077v-157.538462H78.769231V580.923077h157.538461z m-157.538461-472.615385h157.538461v-157.538461H78.769231v157.538461z m472.615384 0h157.538462v-157.538461H551.384615v157.538461z m-78.76923 0v-157.538461H315.076923v157.538461h157.538462z m236.307692 236.307693v-157.538462H551.384615V344.615385h157.538462zM472.615385 344.615385v-157.538462H315.076923V344.615385h157.538462z m0 236.307692v-157.538462H315.076923V580.923077h157.538462z m236.307692 0v-157.538462H551.384615V580.923077h157.538462zM78.769231 344.615385h157.538461v-157.538462H78.769231V344.615385z m236.307692 472.615384h157.538462v-157.538461H315.076923V817.230769z m472.615385-472.615384h157.538461v-157.538462h-157.538461V344.615385z m0 236.307692h157.538461v-157.538462h-157.538461V580.923077z m0 236.307692h157.538461v-157.538461h-157.538461V817.230769z m236.307692 0h157.538462v-157.538461h-157.538462V817.230769z m0-236.307692h157.538462v-157.538462h-157.538462V580.923077z m0-236.307692h157.538462v-157.538462h-157.538462V344.615385z m0-236.307693h157.538462v-157.538461h-157.538462v157.538461zM78.769231 817.230769h157.538461v-157.538461H78.769231z"  horiz-adv-x="1260" />

    
    <glyph glyph-name="huamian6" unicode="&#59027;" d="M787.692308 896H0v-1024h1181.538462V896h-393.846154z m0-78.769231v-157.538461H630.153846V817.230769h157.538462z m236.307692-708.923077v-157.538461h-157.538462v157.538461h157.538462zM315.076923 580.923077v-157.538462H157.538462V580.923077h157.538461z m-157.538461-472.615385h157.538461v-157.538461H157.538462v157.538461z m472.615384 0h157.538462v-157.538461H630.153846v157.538461z m-78.769231 0v-157.538461H393.846154v157.538461h157.538461z m236.307693 236.307693v-157.538462H630.153846V344.615385h157.538462zM551.384615 344.615385v-157.538462H393.846154V344.615385h157.538461z m0 236.307692v-157.538462H393.846154V580.923077h157.538461z m236.307693 0v-157.538462H630.153846V580.923077h157.538462zM157.538462 344.615385h157.538461v-157.538462H157.538462V344.615385z m236.307692 472.615384h157.538461v-157.538461H393.846154V817.230769z m472.615384-472.615384h157.538462v-157.538462h-157.538462V344.615385z m0 236.307692h157.538462v-157.538462h-157.538462V580.923077z m0 236.307692h157.538462v-157.538461h-157.538462V817.230769zM157.538462 817.230769h157.538461v-157.538461H157.538462z"  horiz-adv-x="1181" />

    
    <glyph glyph-name="huamianzuoxia4" unicode="&#59026;" d="M787.692308 896H0v-1024h1181.538462V896h-393.846154z m0-78.769231v-157.538461H630.153846V817.230769h157.538462z m0-236.307692v-157.538462H630.153846V580.923077h157.538462zM315.076923 580.923077v-157.538462H157.538462V580.923077h157.538461z m315.076923-472.615385h157.538462v-157.538461H630.153846v157.538461zM393.846154 580.923077h157.538461v-157.538462H393.846154V580.923077z m630.153846-472.615385v-157.538461h-157.538462v157.538461h157.538462zM315.076923 817.230769v-157.538461H157.538462V817.230769h157.538461z m315.076923-472.615384h157.538462v-157.538462H630.153846V344.615385zM393.846154 817.230769h157.538461v-157.538461H393.846154V817.230769z m472.615384-472.615384h157.538462v-157.538462h-157.538462V344.615385z m0 236.307692h157.538462v-157.538462h-157.538462V580.923077z m0 236.307692h157.538462v-157.538461h-157.538462V817.230769zM157.538462 344.615385h393.846153v-393.846154H157.538462z"  horiz-adv-x="1181" />

    
    <glyph glyph-name="huamianzuoshang5" unicode="&#59025;" d="M787.692308 896H0v-1024h1181.538462V896h-393.846154z m0-78.769231v-157.538461H630.153846V817.230769h157.538462z m-472.615385-708.923077v-157.538461H157.538462v157.538461h157.538461z m472.615385 472.615385v-157.538462H630.153846V580.923077h157.538462z m-157.538462-472.615385h157.538462v-157.538461H630.153846v157.538461z m-236.307692 0h157.538461v-157.538461H393.846154v157.538461z m630.153846 0v-157.538461h-157.538462v157.538461h157.538462zM315.076923 344.615385v-157.538462H157.538462V344.615385h157.538461z m315.076923 0h157.538462v-157.538462H630.153846V344.615385zM393.846154 344.615385h157.538461v-157.538462H393.846154V344.615385z m472.615384 0h157.538462v-157.538462h-157.538462V344.615385z m0 236.307692h157.538462v-157.538462h-157.538462V580.923077z m0 236.307692h157.538462v-157.538461h-157.538462V817.230769zM157.538462 817.230769h393.846153v-393.846154H157.538462z"  horiz-adv-x="1181" />

    
    <glyph glyph-name="huamianzhong" unicode="&#59024;" d="M787.692308 896H0v-1024h1181.538462V896h-393.846154z m0-78.769231v-157.538461H630.153846V817.230769h157.538462z m236.307692-708.923077v-157.538461h-157.538462v157.538461h157.538462zM315.076923 580.923077v-157.538462H157.538462V580.923077h157.538461z m-157.538461-472.615385h157.538461v-157.538461H157.538462v157.538461z m472.615384 0h157.538462v-157.538461H630.153846v157.538461z m-78.769231 0v-157.538461H393.846154v157.538461h157.538461zM315.076923 817.230769v-157.538461H157.538462V817.230769h157.538461zM157.538462 344.615385h157.538461v-157.538462H157.538462V344.615385z m236.307692 472.615384h157.538461v-157.538461H393.846154V817.230769z m472.615384-472.615384h157.538462v-157.538462h-157.538462V344.615385z m0 236.307692h157.538462v-157.538462h-157.538462V580.923077z m0 236.307692h157.538462v-157.538461h-157.538462V817.230769zM393.846154 580.923077h393.846154v-393.846154H393.846154z"  horiz-adv-x="1181" />

    
    <glyph glyph-name="huamianyouxia3" unicode="&#59023;" d="M787.692308 896H0v-1024h1181.538462V896h-393.846154z m0-78.769231v-157.538461H630.153846V817.230769h157.538462z m0-236.307692v-157.538462H630.153846V580.923077h157.538462zM315.076923 580.923077v-157.538462H157.538462V580.923077h157.538461z m-157.538461-472.615385h157.538461v-157.538461H157.538462v157.538461z m236.307692 472.615385h157.538461v-157.538462H393.846154V580.923077z m157.538461-472.615385v-157.538461H393.846154v157.538461h157.538461zM315.076923 817.230769v-157.538461H157.538462V817.230769h157.538461zM157.538462 344.615385h157.538461v-157.538462H157.538462V344.615385z m236.307692 472.615384h157.538461v-157.538461H393.846154V817.230769z m0-472.615384h157.538461v-157.538462H393.846154V344.615385z m472.615384 236.307692h157.538462v-157.538462h-157.538462V580.923077z m0 236.307692h157.538462v-157.538461h-157.538462V817.230769zM630.153846 344.615385h393.846154v-393.846154H630.153846z"  horiz-adv-x="1181" />

    
    <glyph glyph-name="huamianyoushang4" unicode="&#59022;" d="M787.692308 896H0v-1024h1181.538462V896h-393.846154zM315.076923 817.230769v-157.538461H157.538462V817.230769h157.538461z m0-708.923077v-157.538461H157.538462v157.538461h157.538461z m0 472.615385v-157.538462H157.538462V580.923077h157.538461z m315.076923-472.615385h157.538462v-157.538461H630.153846v157.538461z m-236.307692 0h157.538461v-157.538461H393.846154v157.538461z m630.153846 0v-157.538461h-157.538462v157.538461h157.538462zM315.076923 344.615385v-157.538462H157.538462V344.615385h157.538461z m315.076923 0h157.538462v-157.538462H630.153846V344.615385zM393.846154 344.615385h157.538461v-157.538462H393.846154V344.615385z m472.615384 0h157.538462v-157.538462h-157.538462V344.615385zM393.846154 580.923077h157.538461v-157.538462H393.846154V580.923077z m0 236.307692h157.538461v-157.538461H393.846154V817.230769zM630.153846 817.230769h393.846154v-393.846154H630.153846z"  horiz-adv-x="1181" />

    
    <glyph glyph-name="huamianzuozhong1" unicode="&#59021;" d="M787.692308 896H0v-1024h1181.538462V896h-393.846154z m236.307692-315.076923v-393.846154H630.153846V580.923077h393.846154zM551.384615 817.230769v-157.538461H393.846154V817.230769h157.538461z m-393.846153-708.923077h157.538461v-157.538461H157.538462v157.538461z m472.615384 708.923077h157.538462v-157.538461H630.153846V817.230769z m-78.769231-708.923077v-157.538461H393.846154v157.538461h157.538461zM315.076923 817.230769v-157.538461H157.538462V817.230769h157.538461z m315.076923-708.923077h157.538462v-157.538461H630.153846v157.538461z m236.307692 708.923077h157.538462v-157.538461h-157.538462V817.230769z m0-708.923077h157.538462v-157.538461h-157.538462v157.538461zM157.538462 580.923077h393.846153v-393.846154H157.538462z"  horiz-adv-x="1181" />

    
    <glyph glyph-name="huamianzuoxia3" unicode="&#59020;" d="M787.692308 896H0v-1024h1181.538462V896h-393.846154z m236.307692-551.384615v-393.846154H630.153846V344.615385h393.846154zM315.076923 580.923077v-157.538462H157.538462V580.923077h157.538461z m315.076923 0h157.538462v-157.538462H630.153846V580.923077zM393.846154 580.923077h157.538461v-157.538462H393.846154V580.923077z m630.153846 0v-157.538462h-157.538462V580.923077h157.538462zM315.076923 817.230769v-157.538461H157.538462V817.230769h157.538461z m315.076923 0h157.538462v-157.538461H630.153846V817.230769zM393.846154 817.230769h157.538461v-157.538461H393.846154V817.230769z m472.615384 0h157.538462v-157.538461h-157.538462V817.230769zM157.538462 344.615385h393.846153v-393.846154H157.538462z"  horiz-adv-x="1181" />

    
    <glyph glyph-name="huamianzuoshang4" unicode="&#59019;" d="M787.692308 896H0v-1024h1181.538462V896h-393.846154zM315.076923 108.307692v-157.538461H157.538462v157.538461h157.538461z m708.923077 708.923077v-393.846154H630.153846V817.230769h393.846154z m-393.846154-708.923077h157.538462v-157.538461H630.153846v157.538461z m-236.307692 0h157.538461v-157.538461H393.846154v157.538461z m630.153846 0v-157.538461h-157.538462v157.538461h157.538462zM315.076923 344.615385v-157.538462H157.538462V344.615385h157.538461z m315.076923 0h157.538462v-157.538462H630.153846V344.615385zM393.846154 344.615385h157.538461v-157.538462H393.846154V344.615385z m472.615384 0h157.538462v-157.538462h-157.538462V344.615385zM157.538462 817.230769h393.846153v-393.846154H157.538462z"  horiz-adv-x="1181" />

    
    <glyph glyph-name="huamianzhongshang1" unicode="&#59018;" d="M787.692308 896H0v-1024h1181.538462V896h-393.846154z m0-551.384615v-393.846154H393.846154V344.615385h393.846154z m236.307692 472.615384v-157.538461h-157.538462V817.230769h157.538462zM157.538462 108.307692h157.538461v-157.538461H157.538462v157.538461z m708.923076 472.615385h157.538462v-157.538462h-157.538462V580.923077z m157.538462-472.615385v-157.538461h-157.538462v157.538461h157.538462zM315.076923 817.230769v-157.538461H157.538462V817.230769h157.538461zM157.538462 344.615385h157.538461v-157.538462H157.538462V344.615385z m0 236.307692h157.538461v-157.538462H157.538462V580.923077z m708.923076-236.307692h157.538462v-157.538462h-157.538462V344.615385zM393.846154 817.230769h393.846154v-393.846154H393.846154z"  horiz-adv-x="1181" />

    
    <glyph glyph-name="huamianyoushang3" unicode="&#59017;" d="M787.692308 896H0v-1024h1181.538462V896h-393.846154z m236.307692-551.384615v-393.846154H630.153846V344.615385h393.846154zM551.384615 817.230769v-157.538461H393.846154V817.230769h157.538461z m-393.846153-708.923077h157.538461v-157.538461H157.538462v157.538461z m236.307692 472.615385h157.538461v-157.538462H393.846154V580.923077z m157.538461-472.615385v-157.538461H393.846154v157.538461h157.538461zM315.076923 817.230769v-157.538461H157.538462V817.230769h157.538461zM157.538462 344.615385h157.538461v-157.538462H157.538462V344.615385z m0 236.307692h157.538461v-157.538462H157.538462V580.923077z m236.307692-236.307692h157.538461v-157.538462H393.846154V344.615385zM630.153846 817.230769h393.846154v-393.846154H630.153846z"  horiz-adv-x="1181" />

    
    <glyph glyph-name="huamianshangzuo" unicode="&#59016;" d="M787.692308 896H0v-1024h1181.538462V896h-393.846154zM551.384615 344.615385v-393.846154H157.538462V344.615385h393.846153z m472.615385 472.615384v-157.538461h-157.538462V817.230769h157.538462z m-393.846154-708.923077h157.538462v-157.538461H630.153846v157.538461z m236.307692 472.615385h157.538462v-157.538462h-157.538462V580.923077z m157.538462-472.615385v-157.538461h-157.538462v157.538461h157.538462z m-236.307692 708.923077v-157.538461H630.153846V817.230769h157.538462zM630.153846 344.615385h157.538462v-157.538462H630.153846V344.615385z m0 236.307692h157.538462v-157.538462H630.153846V580.923077z m236.307692-236.307692h157.538462v-157.538462h-157.538462V344.615385zM157.538462 817.230769h393.846153v-393.846154H157.538462z"  horiz-adv-x="1181" />

    
    <glyph glyph-name="huamian5" unicode="&#59015;" d="M787.692308 896H0v-1024h1181.538462V896h-393.846154zM708.923077 817.230769v-236.307692H393.846154V817.230769h315.076923z m0-315.076923v-236.307692H393.846154V502.153846h315.076923zM78.769231 817.230769h236.307692v-236.307692H78.769231V817.230769z m0-315.076923h236.307692v-236.307692H78.769231V502.153846z m0-551.384615V187.076923h236.307692v-236.307692H78.769231z m315.076923 0V187.076923h315.076923v-236.307692H393.846154z m708.923077 0h-315.076923V187.076923h315.076923v-236.307692z m0 315.076923h-315.076923V502.153846h315.076923v-236.307692z m0 315.076923h-315.076923V817.230769h315.076923v-236.307692zM78.769231 817.230769h236.307692v-236.307692H78.769231z"  horiz-adv-x="1181" />

    
    <glyph glyph-name="huamianzuoxia2" unicode="&#59014;" d="M840.231385 896H0v-1024h1260.307692V896h-420.076307zM1181.538462 344.615385v-157.538462h-157.538462V344.615385h157.538462z m0 236.307692v-157.538462h-157.538462V580.923077h157.538462z m0 236.307692v-157.538461h-157.538462V817.230769h157.538462z m-236.307693 0v-157.538461H708.923077V817.230769h236.307692z m236.307693-708.923077v-157.538461h-157.538462v157.538461h157.538462zM393.846154 817.230769h236.307692v-157.538461H393.846154V817.230769zM78.769231 817.230769h236.307692v-157.538461H78.769231V817.230769zM78.769231 580.923077h866.461538v-630.153846H78.769231z"  horiz-adv-x="1260" />

    
    <glyph glyph-name="huamianzuoshang3" unicode="&#59012;" d="M840.231385 896H0v-1024h1260.307692V896h-420.076307zM1181.538462 344.615385v-157.538462h-157.538462V344.615385h157.538462z m0 236.307692v-157.538462h-157.538462V580.923077h157.538462z m0 236.307692v-157.538461h-157.538462V817.230769h157.538462z m-236.307693-708.923077v-157.538461H708.923077v157.538461h236.307692z m236.307693 0v-157.538461h-157.538462v157.538461h157.538462zM393.846154 108.307692h236.307692v-157.538461H393.846154v157.538461z m-315.076923 0h236.307692v-157.538461H78.769231v157.538461zM78.769231 817.230769h866.461538v-630.153846H78.769231z"  horiz-adv-x="1260" />

    
    <glyph glyph-name="huamianyouxia2" unicode="&#59011;" d="M840.231385 896H0v-1024h1260.307692V896h-420.076307zM236.307692 344.615385v-157.538462H78.769231V344.615385h157.538461z m0 236.307692v-157.538462H78.769231V580.923077h157.538461z m0 236.307692v-157.538461H78.769231V817.230769h157.538461z m945.23077 0v-157.538461h-236.307693V817.230769h236.307693zM236.307692 108.307692v-157.538461H78.769231v157.538461h157.538461z m393.846154 708.923077h236.307692v-157.538461H630.153846V817.230769zM315.076923 817.230769h236.307692v-157.538461H315.076923V817.230769zM315.076923 580.923077h866.461539v-630.153846H315.076923z"  horiz-adv-x="1260" />

    
    <glyph glyph-name="huamianyoushang2" unicode="&#59010;" d="M840.231385 896H0v-1024h1260.307692V896h-420.076307zM236.307692 344.615385v-157.538462H78.769231V344.615385h157.538461z m0 236.307692v-157.538462H78.769231V580.923077h157.538461z m0 236.307692v-157.538461H78.769231V817.230769h157.538461z m945.23077-708.923077v-157.538461h-236.307693v157.538461h236.307693zM236.307692 108.307692v-157.538461H78.769231v157.538461h157.538461z m393.846154 0h236.307692v-157.538461H630.153846v157.538461z m-315.076923 0h236.307692v-157.538461H315.076923v157.538461zM315.076923 817.230769h866.461539v-630.153846H315.076923z"  horiz-adv-x="1260" />

    
    <glyph glyph-name="huamian4" unicode="&#59009;" d="M787.692308 896H0v-1024h1181.538462V896h-393.846154z m315.076923-78.769231v-157.538461H630.153846V817.230769h472.615385z m0-472.615384v-157.538462H630.153846V344.615385h472.615385zM630.153846 580.923077h472.615385v-157.538462H630.153846V580.923077z m-551.384615-472.615385h472.615384v-157.538461H78.769231v157.538461z m0 236.307693h472.615384v-157.538462H78.769231V344.615385z m0 236.307692h472.615384v-157.538462H78.769231V580.923077z m551.384615-472.615385h472.615385v-157.538461H630.153846v157.538461zM78.769231 817.230769h472.615384v-157.538461H78.769231z"  horiz-adv-x="1181" />

    
    <glyph glyph-name="huamianzuoshang2" unicode="&#59008;" d="M840.231385 896H0v-1024h1260.307692V896h-420.076307zM1181.538462 502.153846v-236.307692h-157.538462V502.153846h157.538462z m0 315.076923v-236.307692h-157.538462V817.230769h157.538462z m0-630.153846v-236.307692h-157.538462V187.076923h157.538462z m-236.307693 0v-236.307692H708.923077V187.076923h236.307692zM393.846154 187.076923h236.307692v-236.307692H393.846154V187.076923zM78.769231 187.076923h236.307692v-236.307692H78.769231V187.076923zM78.769231 817.230769h866.461538v-551.384615H78.769231z"  horiz-adv-x="1260" />

    
    <glyph glyph-name="huamianzuoxia1" unicode="&#59006;" d="M840.231385 896H0v-1024h1260.307692V896h-420.076307zM236.307692 502.153846v-236.307692H78.769231V502.153846h157.538461z m0 315.076923v-236.307692H78.769231V817.230769h157.538461z m0-630.153846v-236.307692H78.769231V187.076923h157.538461z m945.23077 630.153846v-236.307692h-236.307693V817.230769h236.307693zM630.153846 817.230769h236.307692v-236.307692H630.153846V817.230769zM315.076923 817.230769h236.307692v-236.307692H315.076923V817.230769zM315.076923 502.153846h866.461539v-551.384615H315.076923z"  horiz-adv-x="1260" />

    
    <glyph glyph-name="huamianyouxia1" unicode="&#59005;" d="M840.231385 896H0v-1024h1260.307692V896h-420.076307zM1181.538462 502.153846v-236.307692h-157.538462V502.153846h157.538462z m0 315.076923v-236.307692h-157.538462V817.230769h157.538462z m0-630.153846v-236.307692h-157.538462V187.076923h157.538462z m-236.307693 630.153846v-236.307692H708.923077V817.230769h236.307692zM393.846154 817.230769h236.307692v-236.307692H393.846154V817.230769zM78.769231 817.230769h236.307692v-236.307692H78.769231V817.230769zM78.769231 502.153846h866.461538v-551.384615H78.769231z"  horiz-adv-x="1260" />

    
    <glyph glyph-name="huamianyoushang1" unicode="&#59003;" d="M840.231385 896H0v-1024h1260.307692V896h-420.076307zM236.307692 502.153846v-236.307692H78.769231V502.153846h157.538461z m0 315.076923v-236.307692H78.769231V817.230769h157.538461z m0-630.153846v-236.307692H78.769231V187.076923h157.538461z m945.23077 0v-236.307692h-236.307693V187.076923h236.307693zM630.153846 187.076923h236.307692v-236.307692H630.153846V187.076923zM315.076923 187.076923h236.307692v-236.307692H315.076923V187.076923zM315.076923 817.230769h866.461539v-551.384615H315.076923z"  horiz-adv-x="1260" />

    
    <glyph glyph-name="huamianquanping4" unicode="&#59002;" d="M787.692308 896H0v-1024h1181.538462V896zM78.769231 817.230769h1024v-866.461538H78.769231z"  horiz-adv-x="1181" />

    
    <glyph glyph-name="huamiandapinglashen5" unicode="&#59001;" d="M157.538462 817.230769h866.461538v-472.615384H157.538462zM1181.538462 896v-1024H0V896h1181.538462z m-78.769231-78.769231H78.769231v-887.492923h1024V817.230769z"  horiz-adv-x="1181" />

    
    <glyph glyph-name="huamianzuoxia" unicode="&#59000;" d="M840.231385 896H0v-1024h1260.307692V896h-420.076307zM1181.538462 502.153846v-236.307692h-315.076924V502.153846h315.076924z m0 315.076923v-236.307692h-315.076924V817.230769h315.076924z m0-630.153846v-236.307692h-315.076924V187.076923h315.076924zM472.615385 817.230769h315.076923v-236.307692H472.615385V817.230769zM78.769231 817.230769h315.076923v-236.307692H78.769231V817.230769zM78.769231 502.153846h708.923077v-551.384615H78.769231z"  horiz-adv-x="1260" />

    
    <glyph glyph-name="huamianzuoshang1" unicode="&#58999;" d="M840.231385 896H0v-1024h1260.307692V896h-420.076307zM1181.538462 502.153846v-236.307692h-315.076924V502.153846h315.076924z m0 315.076923v-236.307692h-315.076924V817.230769h315.076924z m0-630.153846v-236.307692h-315.076924V187.076923h315.076924zM472.615385 187.076923h315.076923v-236.307692H472.615385V187.076923zM78.769231 187.076923h315.076923v-236.307692H78.769231V187.076923zM78.769231 817.230769h708.923077v-551.384615H78.769231z"  horiz-adv-x="1260" />

    
    <glyph glyph-name="huamianyouxia" unicode="&#58998;" d="M840.231385 896H0v-1024h1260.307692V896h-420.076307zM393.846154 502.153846v-236.307692H78.769231V502.153846h315.076923z m0 315.076923v-236.307692H78.769231V817.230769h315.076923z m787.692308 0v-236.307692h-315.076924V817.230769h315.076924zM472.615385 817.230769h315.076923v-236.307692H472.615385V817.230769zM78.769231 187.076923h315.076923v-236.307692H78.769231V187.076923zM472.615385 502.153846h708.923077v-551.384615H472.615385z"  horiz-adv-x="1260" />

    
    <glyph glyph-name="huamianyoushang" unicode="&#58997;" d="M840.231385 896H0v-1024h1260.307692V896h-420.076307zM393.846154 502.153846v-236.307692H78.769231V502.153846h315.076923z m0 315.076923v-236.307692H78.769231V817.230769h315.076923z m787.692308-630.153846v-236.307692h-315.076924V187.076923h315.076924zM472.615385 187.076923h315.076923v-236.307692H472.615385V187.076923zM78.769231 187.076923h315.076923v-236.307692H78.769231V187.076923zM472.615385 817.230769h708.923077v-551.384615H472.615385z"  horiz-adv-x="1260" />

    
    <glyph glyph-name="huamianquanping3" unicode="&#58996;" d="M787.692308 896H0v-1024h1181.538462V896zM78.769231 817.230769h1024v-866.461538H78.769231z"  horiz-adv-x="1181" />

    
    <glyph glyph-name="huamiandapinglashen4" unicode="&#58995;" d="M157.538462 817.230769h866.461538v-472.615384H157.538462zM1181.538462 896v-1024H0V896h1181.538462z m-78.769231-78.769231H78.769231v-887.492923h1024V817.230769z"  horiz-adv-x="1181" />

    
    <glyph glyph-name="huamian3" unicode="&#58994;" d="M787.692308 896H0v-1024h1181.538462V896h-393.846154z m315.076923-78.769231v-236.307692H630.153846V817.230769h472.615385z m0-630.153846v-236.307692H630.153846V187.076923h472.615385zM630.153846 502.153846h472.615385v-236.307692H630.153846V502.153846zM78.769231 187.076923h472.615384v-236.307692H78.769231V187.076923z m0 315.076923h472.615384v-236.307692H78.769231V502.153846zM78.769231 817.230769h472.615384v-236.307692H78.769231z"  horiz-adv-x="1181" />

    
    <glyph glyph-name="huamianzuo2" unicode="&#58993;" d="M840.231385 896H0v-1024h1260.307692V896h-420.076307zM1181.538462 108.307692v-157.538461h-236.307693v157.538461h236.307693z m0 236.307693v-157.538462h-236.307693V344.615385h236.307693z m-236.307693 236.307692h236.307693v-157.538462h-236.307693V580.923077z m0 236.307692h236.307693v-157.538461h-236.307693V817.230769zM78.769231 817.230769h787.692307v-866.461538H78.769231z"  horiz-adv-x="1260" />

    
    <glyph glyph-name="huamianyou1" unicode="&#58992;" d="M840.231385 896H0v-1024h1260.307692V896h-420.076307zM315.076923 108.307692v-157.538461H78.769231v157.538461h236.307692z m0 236.307693v-157.538462H78.769231V344.615385h236.307692zM78.769231 580.923077h236.307692v-157.538462H78.769231V580.923077z m0 236.307692h236.307692v-157.538461H78.769231V817.230769zM393.846154 817.230769h787.692308v-866.461538H393.846154z"  horiz-adv-x="1260" />

    
    <glyph glyph-name="huamianxia1" unicode="&#58991;" d="M840.231385 896H0v-1024h1260.307692V896h-420.076307zM1181.538462 817.230769v-236.307692h-157.538462V817.230769h157.538462z m-236.307693 0v-236.307692H708.923077V817.230769h236.307692zM393.846154 817.230769h236.307692v-236.307692H393.846154V817.230769zM78.769231 817.230769h236.307692v-236.307692H78.769231V817.230769zM78.769231 502.153846h1102.769231v-551.384615H78.769231z"  horiz-adv-x="1260" />

    
    <glyph glyph-name="huamianshang1" unicode="&#58990;" d="M840.231385 896H0v-1024h1260.307692V896h-420.076307zM1181.538462 187.076923v-236.307692h-157.538462V187.076923h157.538462z m-236.307693 0v-236.307692H708.923077V187.076923h236.307692zM393.846154 187.076923h236.307692v-236.307692H393.846154V187.076923zM78.769231 187.076923h236.307692v-236.307692H78.769231V187.076923zM78.769231 817.230769h1102.769231v-551.384615H78.769231z"  horiz-adv-x="1260" />

    
    <glyph glyph-name="huamianquanping2" unicode="&#58989;" d="M787.692308 896H0v-1024h1181.538462V896zM78.769231 817.230769h1024v-866.461538H78.769231z"  horiz-adv-x="1181" />

    
    <glyph glyph-name="huamiandapinglashen3" unicode="&#58988;" d="M157.538462 817.230769h866.461538v-472.615384H157.538462zM1181.538462 896v-1024H0V896h1181.538462z m-78.769231-78.769231H78.769231v-887.492923h1024V817.230769z"  horiz-adv-x="1181" />

    
    <glyph glyph-name="huamianzuo1" unicode="&#58987;" d="M787.692308 896H0v-1024h1181.538462V896h-393.846154z m315.076923-945.230769h-315.076923V187.07692299999997h315.076923v-236.307692z m0 315.076923h-315.076923V502.153846h315.076923v-236.307692z m0 315.076923h-315.076923V817.230769h315.076923v-236.307692zM78.769231 817.230769h630.153846v-866.461538H78.769231z"  horiz-adv-x="1181" />

    
    <glyph glyph-name="huamianxia" unicode="&#58986;" d="M787.692308 896H0v-1024h1181.538462V896h-393.846154zM708.923077 817.230769v-236.307692H393.846154V817.230769h315.076923zM78.769231 817.230769h236.307692v-236.307692H78.769231V817.230769z m1024-236.307692h-315.076923V817.230769h315.076923v-236.307692zM78.769231 502.153846h1024v-551.384615H78.769231z"  horiz-adv-x="1181" />

    
    <glyph glyph-name="huamianyou" unicode="&#58985;" d="M787.692308 896H0v-1024h1181.538462V896h-393.846154zM78.769231 817.230769h236.307692v-236.307692H78.769231V817.230769z m0-315.076923h236.307692v-236.307692H78.769231V502.153846z m0-551.384615V187.07692299999997h236.307692v-236.307692H78.769231zM393.846154 817.230769h708.923077v-866.461538H393.846154z"  horiz-adv-x="1181" />

    
    <glyph glyph-name="huamianshang" unicode="&#58984;" d="M787.692308 896H0v-1024h1181.538462V896h-393.846154zM78.769231-49.23076900000001V187.07692299999997h236.307692v-236.307692H78.769231z m315.076923 0V187.07692299999997h315.076923v-236.307692H393.846154z m708.923077 0h-315.076923V187.07692299999997h315.076923v-236.307692zM78.769231 817.230769h1024v-551.384615H78.769231z"  horiz-adv-x="1181" />

    
    <glyph glyph-name="huamianquanping1" unicode="&#58983;" d="M787.692308 896H0v-1024h1181.538462V896h-393.846154zM708.923077 817.230769v-236.307692H393.846154V817.230769h315.076923z m0-315.076923v-236.307692H393.846154V502.153846h315.076923zM78.769231 817.230769h236.307692v-236.307692H78.769231V817.230769z m0-315.076923h236.307692v-236.307692H78.769231V502.153846z m0-551.384615V187.076923h236.307692v-236.307692H78.769231z m315.076923 0V187.076923h315.076923v-236.307692H393.846154z m708.923077 0h-315.076923V187.076923h315.076923v-236.307692z m0 315.076923h-315.076923V502.153846h315.076923v-236.307692z m0 315.076923h-315.076923V817.230769h315.076923v-236.307692zM78.769231 817.230769h1024v-866.461538H78.769231z"  horiz-adv-x="1181" />

    
    <glyph glyph-name="huamiandapinglashen2" unicode="&#58982;" d="M157.538462 817.230769h866.461538v-472.615384H157.538462zM1181.538462 896v-1024H0V896h1181.538462z m-78.769231-78.769231H78.769231v-887.492923h1024V817.230769z"  horiz-adv-x="1181" />

    
    <glyph glyph-name="huamian2" unicode="&#58981;" d="M787.692308 896H0v-1024h1181.538462V896h-393.846154z m315.076923-78.769231v-393.846154H630.153846V817.230769h472.615385z m0-472.615384v-393.846154H630.153846V344.615385h472.615385zM78.769231 817.230769h472.615384v-393.846154H78.769231V817.230769z m0-472.615384h472.615384v-393.846154H78.769231V344.615385zM78.769231 817.230769h472.615384v-393.846154H78.769231z"  horiz-adv-x="1181" />

    
    <glyph glyph-name="huamianzuozhong" unicode="&#58980;" d="M840.231385 896H0v-1024h1260.307692V896h-420.076307zM708.923077 344.615385h393.846154v-393.846154H708.923077V344.615385z m0 472.615384h393.846154v-393.846154H708.923077V817.230769zM157.538462 580.923077h393.846153v-393.846154H157.538462z"  horiz-adv-x="1260" />

    
    <glyph glyph-name="huamianzuoshang" unicode="&#58979;" d="M840.231385 896H0v-1024h1260.307692V896h-420.076307zM393.846154 344.615385h393.846154v-393.846154H393.846154V344.615385z m236.307692 472.615384h393.846154v-393.846154H630.153846V817.230769zM157.538462 817.230769h393.846153v-393.846154H157.538462z"  horiz-adv-x="1260" />

    
    <glyph glyph-name="huamianzuo" unicode="&#58978;" d="M840.231385 896H0v-1024h1260.307692V896h-420.076307zM157.538462 344.615385h393.846153v-393.846154H157.538462V344.615385z m551.384615 236.307692h393.846154v-393.846154H708.923077V580.923077zM157.538462 817.230769h393.846153v-393.846154H157.538462z"  horiz-adv-x="1260" />

    
    <glyph glyph-name="huamianzhongshang" unicode="&#58977;" d="M840.231385 896H0v-1024h1260.307692V896h-420.076307zM157.538462 344.615385h393.846153v-393.846154H157.538462V344.615385z m551.384615 0h393.846154v-393.846154H708.923077V344.615385zM393.846154 817.230769h472.615384v-393.846154H393.846154z"  horiz-adv-x="1260" />

    
    <glyph glyph-name="huamiandapinglashen1" unicode="&#58976;" d="M157.538462 817.230769h866.461538v-472.615384H157.538462zM1181.538462 896v-1024H0V896h1181.538462z m-78.769231-78.769231H78.769231v-887.492923h1024V817.230769z"  horiz-adv-x="1181" />

    
    <glyph glyph-name="huamian1" unicode="&#58975;" d="M787.692308 896H0v-1024h1181.538462V896h-393.846154z m315.076923-393.846154v-315.076923h-236.307693V502.153846h236.307693z m-315.076923 0v-315.076923H472.615385V502.153846h315.076923zM78.769231 502.153846h315.076923v-315.076923H78.769231z"  horiz-adv-x="1181" />

    
    <glyph glyph-name="huamianzuoyou" unicode="&#58974;" d="M787.692308 896H0v-1024h1181.538462V896h-393.846154z m315.076923-315.076923v-393.846154H630.153846V580.923077h472.615385zM78.769231 580.923077h472.615384v-393.846154H78.769231z"  horiz-adv-x="1181" />

    
    <glyph glyph-name="huamianshangxia" unicode="&#58973;" d="M787.692308 896H0v-1024h1181.538462V896h-393.846154z m0-551.384615v-393.846154H315.076923V344.615385h472.615385zM315.076923 817.230769h472.615385v-393.846154H315.076923z"  horiz-adv-x="1181" />

    
    <glyph glyph-name="huamianquanping" unicode="&#58972;" d="M787.692308 896H0v-1024h1181.538462V896zM78.769231 817.230769h1024v-866.461538H78.769231z"  horiz-adv-x="1181" />

    
    <glyph glyph-name="huamiandapinglashen" unicode="&#58971;" d="M157.538462 817.230769h866.461538v-472.615384H157.538462zM1181.538462 896v-1024H0V896h1181.538462z m-78.769231-78.769231H78.769231v-887.492923h1024V817.230769z"  horiz-adv-x="1181" />

    
    <glyph glyph-name="huamian" unicode="&#58970;" d="M787.692308 896H0v-1024h1181.538462V896zM78.769231 817.230769h1024v-866.461538H78.769231z"  horiz-adv-x="1181" />

    
    <glyph glyph-name="huamianxuanze" unicode="&#58969;" d="M787.692308 896H0v-1024h1181.538462V896h-393.846154zM708.923077 817.230769v-236.307692H393.846154V817.230769h315.076923z m0-315.076923v-236.307692H393.846154V502.153846h315.076923zM78.769231 817.230769h236.307692v-236.307692H78.769231V817.230769z m0-315.076923h236.307692v-236.307692H78.769231V502.153846z m0-551.384615V187.076923h236.307692v-236.307692H78.769231z m315.076923 0V187.076923h315.076923v-236.307692H393.846154z m708.923077 0h-315.076923V187.076923h315.076923v-236.307692z m0 315.076923h-315.076923V502.153846h315.076923v-236.307692z m0 315.076923h-315.076923V817.230769h315.076923v-236.307692zM708.923077 187.076923h393.846154v-236.307692H708.923077z"  horiz-adv-x="1181" />

    
    <glyph glyph-name="duoxuankuangxuanzhong" unicode="&#58945;" d="M995.555556-99.55555600000002H28.444444V867.555556h967.111112v-967.111112z m-56.888889 910.222223h-853.333334v-853.333334h853.333334v853.333334zM56.888889 839.111111h910.222222v-910.222222H56.888889z"  horiz-adv-x="1024" />

    
    <glyph glyph-name="duoxuankuang" unicode="&#58944;" d="M0 896h1024v-1024H0zM1024 896v-1024H0V896h1024z m-64-64H64v-896h896V832z"  horiz-adv-x="1024" />

    
    <glyph glyph-name="biaotibeijing" unicode="&#58943;" d=""  horiz-adv-x="40510" />

    
    <glyph glyph-name="zhuangshi" unicode="&#58942;" d=""  horiz-adv-x="27219" />

    
    <glyph glyph-name="ji2" unicode="&#58941;" d="M512-93.866667c-263.918933 0-477.866667 213.947733-477.866667 477.866667s213.947733 477.866667 477.866667 477.866667c93.752889 0 183.546311-27.079111 260.460089-77.141334A477.411556 477.411556 0 0 0 989.866667 384c0-263.918933-213.947733-477.866667-477.866667-477.866667z"  horiz-adv-x="1024" />

    
    <glyph glyph-name="ji1" unicode="&#58940;" d="M512 384m-477.866667 0a477.866667 477.866667 0 1 1 955.733334 0 477.866667 477.866667 0 1 1-955.733334 0Z"  horiz-adv-x="1024" />

    
    <glyph glyph-name="ji" unicode="&#58939;" d="M512 384m-477.866667 0a477.866667 477.866667 0 1 1 955.733334 0 477.866667 477.866667 0 1 1-955.733334 0Z"  horiz-adv-x="1024" />

    
    <glyph glyph-name="xinzengshijianchuzhi" unicode="&#58938;" d="M856.901818 730.391273A486.213818 486.213818 0 0 1 511.627636 872.727273a486.306909 486.306909 0 0 1-345.274181-142.336A481.885091 481.885091 0 0 1 23.272727 386.56c0-129.954909 50.827636-252.043636 143.034182-343.831273a486.306909 486.306909 0 0 1 345.320727-142.336c130.420364 0 253.021091 50.548364 345.227637 142.336a481.745455 481.745455 0 0 1 143.080727 343.877818c0 129.861818-50.734545 251.997091-143.034182 343.784728zM755.991273 349.323636h-209.314909v-209.314909a34.909091 34.909091 0 1 0-69.771637 0v209.314909H267.636364a34.909091 34.909091 0 0 0 0 69.771637h209.314909V628.363636a34.909091 34.909091 0 0 0 69.771636 0v-209.314909h209.314909a34.909091 34.909091 0 1 0 0-69.771636z"  horiz-adv-x="1024" />

    
    <glyph glyph-name="riqi" unicode="&#58937;" d="M128-128a128 128 0 0 0-128 128V703.872a128 128 0 0 0 128 128h64v64h128v-64h383.936v64h128v-64h64a128 128 0 0 0 127.936-128V0a128 128 0 0 0-128-128H128z m0 128h767.872V447.936H128v-448z m0 575.936h767.872v128h-64v-64h-128v64H320v-64H192v64H128v-128z m575.936-512v128h128v-128h-128z m-256 0v128h128v-128h-128z m-256 0v128h128v-128H192z m512 192V384h128v-128h-128z m-256 0V384h128v-128h-128z m-256 0V384h128v-128H192z"  horiz-adv-x="1024" />

    
    <glyph glyph-name="ditudanchuxiaokuang" unicode="&#58936;" d="M79.045284 792.66055L9.394495 723.009761v-668.625027L182.384734-118.605505H1723.889908l23.486239 31.311854v201.324036l-28.183486 56.366973V533.513394l28.183486 28.183487V761.348697L1723.889908 792.66055H79.045284zM23.486239-30.494532v-83.413725h83.413724L23.486239-30.494532zM0 717.504587v84.550459h84.550459zM238.751706 849.027523L84.550459 694.826275V510.825688h813.43178L1042.788991 655.63244V849.027523H238.751706z"  horiz-adv-x="1756" />

    
    <glyph glyph-name="ditudanchu" unicode="&#58935;" d="M25.266674 862.967742L3.002933 840.704v-898.393337L58.298933-112.985337H1064.539589l7.507332 10.008774v64.352845l-9.008798 18.017595V780.131848l9.008798 9.008797V852.958968L1064.539589 862.967742H25.266674zM7.507331-84.820833v-26.663038h26.663039L7.507331-84.820833zM0 838.944282v27.026392h27.026393zM76.316528 880.985337L27.026393 831.695202V772.879765h260.011918L333.325513 819.166968V880.985337H76.316528zM897.876833 874.979472h63.061583l6.005866 3.002933h39.038123l6.005865-3.002933h48.046921l15.014662-15.014663v-93.090909l-6.005865-6.005865v-24.02346l-3.002932-3.002933h-6.005865V781.888563l9.008797 12.01173V850.956012l-12.01173 9.008797h-168.164223zM897.876833-124.997067h63.061583l6.005866-3.002933h39.038123l6.005865 3.002933h48.046921l15.014662 15.014662v93.090909l-6.005865 6.005866v24.02346l-3.002932 3.002932h-6.005865v-48.04692l9.008797-12.011731v-57.055718l-12.01173-9.008798h-168.164223z"  horiz-adv-x="1075" />

    
    <glyph glyph-name="xiayu" unicode="&#58934;" d="M213.341091 213.341091h85.317818v-234.682182H213.341091V213.341091zM384 256h85.341091V128H384v128z m0-256h85.341091V-128H384v128z m341.341091 0h85.317818V-128h-85.317818v128z m85.317818 256H896V128h-85.341091v128z m-213.317818-42.658909h85.317818v-170.682182h-85.317818v170.682182zM234.658909 298.658909C115.2 298.658909 21.341091 392.541091 21.341091 512c0 115.2 89.6 204.8 200.517818 213.341091C273.058909 827.741091 384 896 512 896c145.058909 0 268.8-89.6 307.2-213.341091 102.4-4.258909 183.458909-89.6 183.458909-192 0-98.117818-76.8-179.2-170.658909-192H234.658909z"  horiz-adv-x="1024" />

    
    <glyph glyph-name="bangzhu" unicode="&#58933;" d="M546.620952 896c282.819048 0 512-229.229714 512-512S829.44-128 546.620952-128C263.94819-128 34.620952 101.229714 34.620952 384S263.94819 896 546.620952 896z m11.215238-685.884952a85.820952 85.820952 0 0 1-85.089523-85.138286c0-46.518857 38.619429-84.260571 85.138285-84.260572a84.845714 84.845714 0 0 1 84.260572 84.260572c0 46.518857-38.619429 85.138286-84.260572 85.138286z m24.624762 550.326857c-139.556571 0-237.860571-65.828571-264.192-215.04l143.067429-24.576c11.410286 82.505143 42.130286 131.657143 107.958857 131.657143 50.029714 0 86.016-36.864 86.016-93.915429 0-50.907429-19.309714-86.016-76.361143-137.801143-59.684571-55.296-79.872-93.037714-79.872-149.211428h111.469715c9.654857 35.986286 33.353143 62.317714 93.037714 106.203428 85.138286 62.317714 114.102857 110.592 114.102857 182.564572 0 131.657143-89.526857 200.118857-235.227429 200.118857z"  horiz-adv-x="1072" />

    
    <glyph glyph-name="tuichu" unicode="&#58932;" d="M512-109.312a460.8 460.8 0 0 0-230.4 864.768l57.6-99.84a348.672 348.672 0 1 1 348.672 0l54.528 99.84a460.8 460.8 0 0 0-230.4-864.768zM435.2 896h153.6v-460.8h-153.6z"  horiz-adv-x="1024" />

    
    <glyph glyph-name="yidong-xiangshang" unicode="&#58930;" d="M1109.504 613.7344L210.0224-111.104 34.2528-21.6576l1075.2 900.7104 1075.2-900.7104-139.52-89.3952z"  horiz-adv-x="2201" />

    
    <glyph glyph-name="yidong-xiangxia" unicode="&#58929;" d="M1109.504 154.2656L2008.832 879.104l175.7696-89.3952-1075.2-900.7104-1075.2 900.7104L173.7728 879.104z"  horiz-adv-x="2201" />

    
    <glyph glyph-name="jiantou-xia" unicode="&#58920;" d="M1030.68844 430.163947c0-23.3737-8.191925-43.230214-24.486733-59.525022l-430.610329-431.32267a85.035745 85.035745 0 0 0-60.237363-24.486733c-23.3737 0-43.274735 8.236447-59.525022 24.486733L25.218664 370.638925A78.891801 78.891801 0 0 0 0.01959 430.208469c0 23.329178 8.370011 43.363778 25.199074 60.237363l48.973466 49.641285a85.035745 85.035745 0 0 0 60.237363 24.486733c23.3737 0 43.274735-8.191925 59.525022-24.486733l194.513702-194.513702V811.311076c0 22.928486 8.370011 42.740479 25.199074 59.525022A81.563081 81.563081 0 0 0 473.192313 895.990651h84.724096c22.973008 0 42.740479-8.370011 59.569543-25.199075 16.6955-16.829064 25.154553-36.596535 25.154553-59.525021v-465.69314l194.558223 194.558224c16.250286 16.250286 36.151322 24.486733 59.525022 24.486733 22.928486 0 42.963086-8.236447 60.237363-24.486733l49.641286-49.685807c15.894116-17.274277 24.086041-37.308877 24.086041-60.281885z"  horiz-adv-x="1068" />

    
    <glyph glyph-name="jiantou-shang" unicode="&#58919;" d="M0.001336 380.659985c0 23.373872 8.191986 43.275055 24.486914 59.525462L455.101762 871.511305A85.036374 85.036374 0 0 0 515.33957 895.998219c23.373872 0 43.275055-8.191986 59.525462-24.486914l430.613512-431.281337c16.695623-15.894233 25.199261-35.795416 25.19926-59.569983 0-23.373872-8.370072-43.40862-25.19926-60.237808l-48.973828-49.686175a85.036374 85.036374 0 0 0-60.237809-24.486914c-23.373872 0-43.275055 8.236507-59.525461 24.486914l-194.51514 194.51514v-465.696581c0-22.928656-8.370072-42.696274-25.199261-59.525462a81.563684 81.563684 0 0 0-59.525462-25.154739h-84.724722c-22.973177 0-42.740795 8.325551-59.569983 25.154739-16.695623 16.829188-25.154739 36.596806-25.154739 59.569983V465.251142l-194.559662-194.51514c-16.250407-16.250407-36.151589-24.486914-59.525461-24.486914a85.036374 85.036374 0 0 0-60.237809 24.486914L24.087555 320.422177A86.416545 86.416545 0 0 0 0.001336 380.659985z"  horiz-adv-x="1068" />

    
    <glyph glyph-name="jiantou-zuozuo" unicode="&#58918;" d="M965.633638-87.04c-21.504 0-39.81312 7.53664-54.80448 22.528l-396.77952 396.16512a78.2336 78.2336 0 0 0-22.528 55.41888c0 21.504 7.53664 39.81312 22.528 54.76352l396.77952 396.16512A72.58112 72.58112 0 0 0 965.633638 861.184c21.504 0 39.936-7.70048 55.41888-23.18336l45.71136-45.056c14.9504-15.85152 22.528-34.28352 22.528-55.41888 0-21.504-7.5776-39.81312-22.528-54.76352l-178.95424-178.95424h428.4416c21.0944 0 39.28064-7.70048 54.76352-23.18336 15.36-15.36 23.1424-33.66912 23.1424-54.76352v-77.94688c0-21.13536-7.65952-39.3216-23.1424-54.80448-15.48288-15.36-33.66912-23.1424-54.80448-23.1424H887.809638l178.95424-178.9952c14.9504-14.9504 22.528-33.25952 22.528-54.76352 0-21.0944-7.5776-39.5264-22.528-55.41888l-45.71136-45.6704c-15.85152-14.62272-34.28352-22.15936-55.41888-22.15936zM474.113638-93.184c-21.504 0-39.81312 7.53664-54.80448 22.528L22.529638 325.50912A78.2336 78.2336 0 0 0 0.001638 380.928c0 21.504 7.53664 39.81312 22.528 54.80448l396.77952 396.12416A72.58112 72.58112 0 0 0 474.113638 855.04c21.504 0 39.936-7.65952 55.41888-23.18336l45.71136-45.056c14.9504-15.85152 22.528-34.28352 22.528-55.41888 0-21.504-7.5776-39.81312-22.528-54.76352L396.289638 497.664h428.4416c21.0944 0 39.28064-7.65952 54.76352-23.18336 15.36-15.36 23.1424-33.62816 23.1424-54.76352v-77.94688c0-21.13536-7.65952-39.3216-23.1424-54.80448-15.48288-15.36-33.66912-23.1424-54.80448-23.1424H396.289638l178.95424-178.9952c14.9504-14.9504 22.528-33.25952 22.528-54.76352 0-21.0944-7.5776-39.5264-22.528-55.41888l-45.71136-45.6704c-15.85152-14.62272-34.28352-22.15936-55.41888-22.15936z"  horiz-adv-x="1433" />

    
    <glyph glyph-name="jiantou-youyou" unicode="&#58917;" d="M467.968 855.04c21.504 0 39.81312-7.53664 54.76352-22.528l396.82048-396.16512c14.99136-15.85152 22.528-34.28352 22.528-55.41888 0-21.504-7.53664-39.81312-22.528-54.76352l-396.77952-396.16512a72.58112 72.58112 0 0 0-54.80448-23.18336c-21.504 0-39.936 7.65952-55.41888 23.18336l-45.71136 45.056a78.2336 78.2336 0 0 0-22.528 55.41888c0 21.504 7.5776 39.81312 22.528 54.76352l178.95424 178.95424H117.3504c-21.0944 0-39.28064 7.70048-54.76352 23.18336a75.03872 75.03872 0 0 0-23.18336 54.76352v77.94688c0 21.13536 7.70048 39.3216 23.18336 54.80448 15.48288 15.36 33.66912 23.1424 54.80448 23.1424h428.40064l-178.95424 178.9952a74.67008 74.67008 0 0 0-22.528 54.76352c0 21.0944 7.5776 39.5264 22.528 55.41888l45.71136 45.6704c15.85152 14.62272 34.28352 22.15936 55.41888 22.15936zM959.488 861.184c21.504 0 39.81312-7.53664 54.76352-22.528l396.82048-396.16512c14.99136-15.85152 22.528-34.28352 22.528-55.41888 0-21.504-7.53664-39.81312-22.528-54.80448l-396.77952-396.12416a72.58112 72.58112 0 0 0-54.80448-23.18336c-21.504 0-39.936 7.65952-55.41888 23.18336l-45.71136 45.056a78.2336 78.2336 0 0 0-22.528 55.41888c0 21.504 7.5776 39.81312 22.528 54.76352l178.95424 178.95424h-428.4416c-21.0944 0-39.28064 7.65952-54.76352 23.18336a75.03872 75.03872 0 0 0-23.1424 54.76352v77.94688c0 21.13536 7.65952 39.3216 23.1424 54.80448 15.48288 15.36 33.66912 23.1424 54.80448 23.1424h428.40064l-178.95424 178.9952a74.67008 74.67008 0 0 0-22.528 54.76352c0 21.0944 7.5776 39.5264 22.528 55.41888l45.71136 45.6704c15.85152 14.62272 34.28352 22.15936 55.41888 22.15936z"  horiz-adv-x="1433" />

    
    <glyph glyph-name="jiantou-zuo" unicode="&#58916;" d="M515.200853-128c-22.4 0-41.472 7.850667-57.088 23.466667L44.800853 308.138667A81.493333 81.493333 0 0 0 21.334187 365.866667c0 22.4 7.850667 41.472 23.466666 57.045333l413.312 412.672A75.605333 75.605333 0 0 0 515.200853 859.733333c22.4 0 41.6-8.021333 57.728-24.149333l47.616-46.933333c15.573333-16.512 23.466667-35.712 23.466667-57.728 0-22.4-7.893333-41.472-23.466667-57.045334L434.134187 487.466667h446.293333c21.973333 0 40.917333-8.021333 57.045333-24.149334 16-16 24.106667-35.072 24.106667-57.045333v-81.194667c0-22.016-7.978667-40.96-24.106667-57.088-16.128-16-35.072-24.106667-57.088-24.106666H434.134187l186.410666-186.453334c15.573333-15.573333 23.466667-34.645333 23.466667-57.045333 0-21.973333-7.893333-41.173333-23.466667-57.728l-47.616-47.573333c-16.512-15.232-35.712-23.082667-57.728-23.082667z"  horiz-adv-x="1024" />

    
    <glyph glyph-name="jiantou-you" unicode="&#58915;" d="M508.8 896c22.4 0 41.472-7.850667 57.045333-23.466667l413.354667-412.672c15.616-16.512 23.466667-35.712 23.466667-57.728 0-22.4-7.850667-41.472-23.466667-57.045333l-413.312-412.672a75.605333 75.605333 0 0 0-57.088-24.149333c-22.4 0-41.6 7.978667-57.728 24.149333l-47.616 46.933333a81.493333 81.493333 0 0 0-23.466667 57.728c0 22.4 7.893333 41.472 23.466667 57.045334l186.410667 186.410666H143.573333c-21.973333 0-40.917333 8.021333-57.045333 24.149334a78.165333 78.165333 0 0 0-24.149333 57.045333v81.194667c0 22.016 8.021333 40.96 24.149333 57.088 16.128 16 35.072 24.106667 57.088 24.106666h446.250667l-186.410667 186.453334a77.781333 77.781333 0 0 0-23.466667 57.045333c0 21.973333 7.893333 41.173333 23.466667 57.728L451.072 872.917333C467.584 888.149333 486.784 896 508.8 896z"  horiz-adv-x="1024" />

    
    <glyph glyph-name="fayan" unicode="&#58914;" d="M545.28-3.968v-45.248h78.72a39.36 39.36 0 1 0 0-78.784H387.712a39.36 39.36 0 0 0 0 78.72h78.72v45.312A393.856 393.856 0 0 0 112 387.968v35.392a39.36 39.36 0 0 0 78.72 0v-35.392a315.072 315.072 0 0 1 630.208 0v35.392a39.36 39.36 0 0 0 78.72 0v-35.392a393.856 393.856 0 0 0-354.432-391.936zM505.856 896a236.288 236.288 0 0 0 236.288-236.288V384a236.288 236.288 0 1 0-472.576 0V659.712A236.288 236.288 0 0 0 505.856 896z"  horiz-adv-x="1024" />

    
    <glyph glyph-name="jinzhifayan" unicode="&#58913;" d="M562.761143 247.222857l-272.091429 388.681143v-173.494857A221.988571 221.988571 0 0 1 512 241.005714c17.554286 0 34.377143 2.340571 50.761143 6.217143zM512 139.556571a323.145143 323.145143 0 0 0-322.852571 322.852572 46.153143 46.153143 0 0 1-92.379429 0 415.597714 415.597714 0 0 1 359.862857-411.355429v-123.757714c0-30.354286 24.868571-55.296 55.222857-55.296 30.427429 0 55.369143 24.868571 55.369143 55.296v123.757714a410.331429 410.331429 0 0 1 110.811429 31.232l-54.345143 77.531429c-34.742857-12.873143-72.411429-20.260571-111.689143-20.260572zM796.525714 160.768a413.476571 413.476571 0 0 1 130.706286 301.714286 46.153143 46.153143 0 0 1-92.379429 0 321.462857 321.462857 0 0 0-92.013714-225.133715l-59.977143 85.577143a219.428571 219.428571 0 0 1 50.468572 139.556572v212.114285A222.061714 222.061714 0 0 1 512 896c-69.485714 0-131.510857-32.548571-172.251429-83.236571L299.008 871.131429a37.083429 37.083429 0 0 1-51.492571 9.069714 37.083429 37.083429 0 0 1-8.996572-51.419429l565.394286-807.497143c11.629714-16.603429 34.742857-20.772571 51.419428-9.069714a37.083429 37.083429 0 0 1 8.996572 51.419429l-67.876572 97.28z"  horiz-adv-x="1024" />

    
    <glyph glyph-name="guangbo" unicode="&#58912;" d="M50.432 545.536v-327.488h204.16l255.36-272.896V818.56l-255.36-272.96zM739.84 381.824c0 98.176-51.136 180.16-127.744 218.304v-436.608c76.608 38.208 127.744 120 127.744 218.24M612.096 862.144V747.52c148.16-49.152 255.36-191.04 255.36-365.696 0-174.72-107.2-316.608-255.36-365.696v-114.624c204.288 49.152 357.504 245.632 357.504 480.32S816.384 812.992 612.096 862.08"  horiz-adv-x="1024" />

    
    <glyph glyph-name="guangboguzhang" unicode="&#58911;" d="M508.8 879.168l-371.2-292.224H67.008c-35.328 0-61.824-25.024-61.824-66.752v-250.496c0-33.344 26.496-66.752 61.824-66.752h61.888l379.904-300.544s88.32-58.432 88.32 50.048V829.12c0 108.544-88.32 50.112-88.32 50.112M813.12 446.272l119.168 102.016 64.832-55.488-119.168-102.016 119.168-102.016-64.832-55.488-119.168 102.016-119.168-102.016-64.832 55.488 119.168 102.016L629.12 492.8l64.832 55.552 119.168-102.08z"  horiz-adv-x="1024" />

    
    <glyph glyph-name="jieting1" unicode="&#58910;" d="M100.390892 875.179309c72.958495 42.111131 129.021339 18.751613 185.084182-55.678851 65.91864-87.678192 110.205727-173.180428 39.231191-234.747159 0 0-77.438403-65.278654 103.805859-257.466689 212.283622-223.483391 287.610068-129.661326 287.610068-129.661326 77.822395 77.694398 135.933196 28.287417 223.931382-36.927238 87.934186-65.150656 115.837611-131.005298 40.127172-225.531349-145.788993-182.140243-488.181931 74.68646-621.299186 204.539782 0 0-203.515802 197.499927-271.354403 321.785363L50.471921 527.922472C1.704927 623.280505-20.566614 730.414295 24.680453 805.740742c0 0 18.623616 36.35125 75.710439 69.374569z"  horiz-adv-x="1024" />

    
    <glyph glyph-name="juting1" unicode="&#58909;" d="M2770.26133332 143.61599999999999c-43.648-162.688-156.032-209.024-340.48-183.04-217.216 30.72-400.896 89.088-387.584 276.48 0 0 17.28 201.856-510.848 217.344-616.32 15.872-590.08-223.36-590.08-223.36-0.256-219.904-152.32-232.192-369.024-264.448-216.448-32.256-349.056 21.376-375.68 262.144C145.23733332 692.608 992.85333332 813.568 1364.56533332 818.176c0 0 567.168 8.576 838.784-71.296l146.304-41.6c203.904-65.92 386.816-185.856 429.568-356.48 0 0 24.96-77.696-8.96-205.184z"  horiz-adv-x="4096" />

    
    <glyph glyph-name="shanchu" unicode="&#58907;" d="M51.328 737.92c0-22.592 18.24-40.96 40.96-40.96h838.144a40.96 40.96 0 1 1 0 81.92H92.224a41.024 41.024 0 0 1-40.96-40.96zM541.696 868.288h-51.392a40.96 40.96 0 0 1-40.96-40.96v-89.536c0-22.592 18.24-40.96 40.96-40.96h51.392a40.96 40.96 0 0 1 40.96 40.96v89.6a40.96 40.96 0 0 1-40.96 40.96zM882.688 655.104v-678.912c0-39.168-31.68-70.784-70.784-70.784H210.56c-39.104 0-70.848 31.68-70.848 70.784V655.104h742.912zM711.296 567.04a40.96 40.96 0 0 1-40.96-40.96v-458.176a40.96 40.96 0 1 1 81.92 0v458.24a40.96 40.96 0 0 1-40.96 40.896z m-400 0a40.96 40.96 0 0 1-40.96-40.96v-458.176a40.96 40.96 0 1 1 81.92 0v458.24a40.96 40.96 0 0 1-40.96 40.896z m200 0a40.96 40.96 0 0 1-40.96-40.96v-458.176a40.96 40.96 0 1 1 81.92 0v458.24a40.96 40.96 0 0 1-40.96 40.896z"  horiz-adv-x="1024" />

    
    <glyph glyph-name="lunxun" unicode="&#58906;" d="M958.144 128.64l21.184 4.48a33.728 33.728 0 1 0 14.08-65.92l-76.928-16.256a56.192 56.192 0 0 0-66.624 43.264l-16.384 76.864a33.728 33.728 0 0 0 65.92 14.016l3.584-16.768a435.52 435.52 0 0 1-618.88 573.632l-2.176-1.472a33.728 33.728 0 0 0-36.992 56.448l0.384 0.192-0.128 0.192a503.04 503.04 0 0 0 712.96-668.672zM328.704 375.936a191.36 191.36 0 1 0 382.656 0 191.36 191.36 0 0 0-382.656 0zM643.84 375.936a123.776 123.776 0 1 1-247.616 0 123.776 123.776 0 0 1 247.616 0zM520.064-59.52a433.472 433.472 0 0 1 237.952 70.72l0.256-0.448 0.96 0.64a33.728 33.728 0 1 0 32.256-58.944A503.04 503.04 0 0 0 81.984 623.424l-20.992-4.48A33.664 33.664 0 0 0 46.976 684.8l76.672 16.256a56.064 56.064 0 0 0 66.496-43.2l16.32-76.8a33.6 33.6 0 1 0-65.728-13.952l-3.52 16.64a435.52 435.52 0 0 1 382.848-643.2z"  horiz-adv-x="1024" />

    
    <glyph glyph-name="jiahao" unicode="&#58903;" d="M32 480h427.2V896H576v-416h429.12v-138.688H576V-128H459.2V341.312H32z"  horiz-adv-x="1024" />

    
    <glyph glyph-name="zhankai" unicode="&#58902;" d="M0 896h1638.4L819.2-59.6992z"  horiz-adv-x="1638" />

    
    <glyph glyph-name="shousuo" unicode="&#58901;" d="M1638.4-59.6992H0L819.2 896z"  horiz-adv-x="1638" />

    
    <glyph glyph-name="bianji" unicode="&#58900;" d="M844.16 739.84a31.317333 31.317333 0 0 1-44.288 0L489.813333 429.781333a31.317333 31.317333 0 1 1 44.288-44.288L844.16 695.466667a31.317333 31.317333 0 0 1 0 44.288z m-114.858667-332.586667a31.018667 31.018667 0 0 1-31.018666-31.018666v-155.136a31.018667 31.018667 0 0 0-31.061334-31.018667H263.765333a31.018667 31.018667 0 0 0-31.018666 31.018667V717.568c0 17.152 13.866667 31.018667 31.018666 31.018667h310.357334a31.018667 31.018667 0 1 1 0 62.08H232.746667C198.4 810.666667 170.666667 782.890667 170.666667 748.586667v-558.506667C170.666667 155.733333 198.442667 128 232.746667 128h465.493333c34.304 0 62.08 27.776 62.08 62.08v186.154667a31.018667 31.018667 0 0 1-31.018667 31.018666z"  horiz-adv-x="1024" />

    
    <glyph glyph-name="huichang" unicode="&#58899;" d="M251.222699 397.243733c-55.5008 48.605867-91.067733 122.948267-91.067734 206.301867 0 146.295467 109.3632 264.874667 244.189867 264.874667C539.308032 868.420267 648.534699 749.909333 648.534699 603.5456c0-83.285333-35.498667-157.696-91.067734-206.301867 147.456-65.467733 251.221333-222.549333 251.221334-406.050133 0-17.749333-0.955733-35.157333-2.798934-52.292267h-87.927466c2.4576 17.339733 3.6864 34.816 3.6864 52.292267 0 190.0544-142.062933 344.132267-317.303467 344.132267-175.240533 0-317.2352-154.077867-317.2352-344.064 0-17.8176 1.2288-35.293867 3.618133-52.360534H2.868565A481.143467 481.143467 0 0 0 0.001365-8.8064c0 183.432533 103.765333 340.650667 251.221334 406.050133z m153.122133 35.976534c86.698667 0 157.0816 76.253867 157.0816 170.325333 0 94.139733-70.314667 170.3936-157.013333 170.3936-86.8352 0-157.149867-76.253867-157.149867-170.3936 0-94.071467 70.314667-170.325333 157.0816-170.325333zM688.197632 896c134.7584 0 243.985067-118.5792 243.985067-264.874667 0-83.421867-35.498667-157.832533-90.999467-206.370133 147.319467-65.536 251.0848-222.685867 251.0848-406.186667 0-17.681067-0.955733-35.157333-2.8672-52.292266h-87.790933c2.389333 17.339733 3.618133 34.816 3.618133 52.292266 0 190.122667-141.994667 344.200533-317.0304 344.200534h1.024c-25.122133 0-45.4656 21.9136-45.4656 48.9472 0 27.0336 20.343467 48.9472 45.4656 48.9472h-1.024c86.698667 0 156.945067 76.322133 156.945067 170.3936 0 94.208-70.314667 170.461867-157.013334 170.461866-6.007467 0-13.1072-0.8192-21.162666-2.389333-21.162667-4.096-41.3696 11.0592-45.192534 33.792a44.8512 44.8512 0 0 0-0.4096 3.140267c-2.730667 28.535467 16.1792 54.272 42.5984 58.026666C673.247232 895.317333 681.302699 896 688.197632 896z"  horiz-adv-x="1092" />

    
    <glyph glyph-name="chaxun" unicode="&#58898;" d="M450.304 896a450.112 450.112 0 0 0 450.24-449.92 447.936 447.936 0 0 0-104.64-288.448L1024-70.20799999999997l-57.92-57.792-228.096 227.84a448.64 448.64 0 0 0-287.68-103.744A450.112 450.112 0 0 0 0 446.016C0 694.592 201.6 896 450.304 896z m0-81.792A368.256 368.256 0 0 1 81.856 446.08a368.256 368.256 0 0 1 368.448-368.192 368.256 368.256 0 0 1 368.384 368.192 368.256 368.256 0 0 1-368.384 368.128z"  horiz-adv-x="1024" />

    
    <glyph glyph-name="bohaoquxiao" unicode="&#58886;" d="M512 384m-512 0a512 512 0 1 1 1024 0 512 512 0 1 1-1024 0ZM792.774194 516.129032v-280.774193H363.354839l-148.645162 140.387096 148.645162 140.387097h429.419355z m-164.913549-33.032258a3.683097 3.683097 0 0 1-2.64258-1.10658l-72.10942-72.092904-71.76258 71.729549a3.732645 3.732645 0 0 1-5.268646 0l-29.051871-29.051871a3.732645 3.732645 0 0 1 0-5.268645l71.779097-71.746065-71.415742-71.399226a3.716129 3.716129 0 0 1 0-5.285161l29.068387-29.051871a3.732645 3.732645 0 0 1 5.268645 0l71.38271 71.399226 71.746065-71.746065a3.732645 3.732645 0 0 1 5.285161 0l29.068387 29.051871a3.749161 3.749161 0 0 1 0 5.285162l-71.746064 71.746064 72.092903 72.092903a3.732645 3.732645 0 0 1 0 5.285162l-29.051871 29.051871a3.683097 3.683097 0 0 1-2.642581 1.10658z"  horiz-adv-x="1024" />

    
    <glyph glyph-name="jieting" unicode="&#58885;" d="M512 384m-512 0a512 512 0 1 1 1024 0 512 512 0 1 1-1024 0ZM286.24 653.36c40 23.088 70.736 10.272 101.488-30.544 36.16-48.048 60.432-94.96 21.504-128.736 0 0-42.464-35.792 56.928-141.184 116.416-122.56 157.728-71.104 157.728-71.104 42.672 42.608 74.56 15.52 122.8-20.256 48.224-35.728 63.52-71.84 22-123.68-79.936-99.888-267.712 40.96-340.704 112.16 0 0-111.648 108.32-148.8 176.48l-20.32 36.432c-26.752 52.288-38.976 111.04-14.16 152.384 0 0 10.224 19.936 41.52 38.048z"  horiz-adv-x="1024" />

    
    <glyph glyph-name="thjl" unicode="&#58884;" d="M512 384m-512 0a512 512 0 1 1 1024 0 512 512 0 1 1-1024 0ZM580.442839 454.292645h-110.195613c-14.269935 0-25.765161 11.495226-25.765161 25.765161v110.195613c0 10.306065 8.324129 18.630194 18.630193 18.630194 10.306065 0 18.630194-8.324129 18.630194-18.630194v-98.700387h98.700387c10.306065 0 18.630194-8.324129 18.630193-18.630193 0-10.306065-8.324129-18.630194-18.630193-18.630194z m177.317161 5.945807l-126.843871-126.843871c-7.134968-7.134968-19.026581-7.134968-26.557935 0-7.134968 7.134968-7.134968 19.026581 0 26.557935l124.052645 124.069161H665.269677a18.613677 18.613677 0 0 0-18.630193 18.630194c0 10.306065 8.324129 18.630194 18.630193 18.630194h110.592c14.269935 0 25.765161-11.495226 25.765162-25.765162v-110.592a19.208258 19.208258 0 0 0-19.026581-18.630193 18.613677 18.613677 0 0 0-18.630193 18.630193v99.096774h-4.01342c4.839226-7.432258 4.112516-17.474065-2.196645-23.783225z m-132.525419 181.941677c7.134968-7.134968 7.134968-19.026581 0-26.557935l-126.843871-126.843871c-7.134968-7.134968-19.026581-7.134968-26.557936 0-7.531355 7.134968-7.531355 19.026581 0 26.557935l126.843871 126.843871c7.134968 7.134968 19.026581 7.134968 26.557936 0zM253.192258 620.32929c40.018581 23.089548 70.755097 10.273032 101.508129-30.554838 36.13729-48.028903 60.432516-94.967742 21.504-128.72671 0 0-42.462968-35.790452 56.931097-141.179871 116.405677-122.549677 157.729032-71.118452 157.729032-71.118452 42.661161 42.611613 74.53729 15.525161 122.797419-20.248774 48.227097-35.724387 63.521032-71.845161 21.999484-123.672774-79.938065-99.889548-267.726452 40.96-340.727742 112.161032 0 0-111.632516 108.312774-148.793806 176.474839l-20.314839 36.418064c-26.756129 52.306581-38.978065 111.054452-14.154322 152.394323 0 0 10.223484 19.934968 41.521548 38.053161z"  horiz-adv-x="1024" />

    
    <glyph glyph-name="dianhuajianpan" unicode="&#58883;" d="M512 384m-512 0a512 512 0 1 1 1024 0 512 512 0 1 1-1024 0ZM346.832 549.168m-49.552 0a49.552 49.552 0 1 1 99.104 0 49.552 49.552 0 1 1-99.104 0ZM512 549.168m-49.552 0a49.552 49.552 0 1 1 99.104 0 49.552 49.552 0 1 1-99.104 0ZM677.168 549.168m-49.552 0a49.552 49.552 0 1 1 99.104 0 49.552 49.552 0 1 1-99.104 0ZM346.832 384m-49.552 0a49.552 49.552 0 1 1 99.104 0 49.552 49.552 0 1 1-99.104 0ZM512 384m-49.552 0a49.552 49.552 0 1 1 99.104 0 49.552 49.552 0 1 1-99.104 0ZM677.168 384m-49.552 0a49.552 49.552 0 1 1 99.104 0 49.552 49.552 0 1 1-99.104 0ZM346.832 218.832m-49.552 0a49.552 49.552 0 1 1 99.104 0 49.552 49.552 0 1 1-99.104 0ZM512 218.832m-49.552 0a49.552 49.552 0 1 1 99.104 0 49.552 49.552 0 1 1-99.104 0ZM677.168 218.832m-49.552 0a49.552 49.552 0 1 1 99.104 0 49.552 49.552 0 1 1-99.104 0Z"  horiz-adv-x="1024" />

    


  </font>
</defs>
</svg>
