<?xml version="1.0" encoding="UTF-8"?>
<svg width="15px" height="13px" viewBox="0 0 15 13" version="1.1" xmlns="http://www.w3.org/2000/svg" xmlns:xlink="http://www.w3.org/1999/xlink">
    <!-- Generator: Sketch 59.1 (86144) - https://sketch.com -->
    <title>10画面中上</title>
    <desc>Created with Sketch.</desc>
    <g id="图标库" stroke="none" stroke-width="1" fill="none" fill-rule="evenodd">
        <g id="VDCP" transform="translate(-575.000000, -424.000000)">
            <g id="视频会议" transform="translate(15.000000, 5.000000)">
                <g id="10画面中上" transform="translate(560.000000, 418.000000)">
                    <rect id="矩形" fill="#000000" fill-rule="nonzero" opacity="0" x="0" y="0" width="16" height="16"></rect>
                    <path d="M10,1 L9,1 L5,1 L4,1 L0,1 L0,5 L0,6 L0,9 L0,10 L0,14 L9,14 L10,14 L15,14 L15,1 L10,1 Z M10,8 L10,13 L5,13 L5,8 L10,8 Z M13,2 L13,4 L11,4 L11,2 L13,2 Z M2,11 L4,11 L4,13 L2,13 L2,11 Z M11,5 L13,5 L13,7 L11,7 L11,5 Z M13,11 L13,13 L11,13 L11,11 L13,11 Z M4,2 L4,4 L2,4 L2,2 L4,2 Z M2,8 L4,8 L4,10 L2,10 L2,8 Z M2,5 L4,5 L4,7 L2,7 L2,5 Z M11,8 L13,8 L13,10 L11,10 L11,8 Z" id="形状" fill="#98C4FB" fill-rule="nonzero"></path>
                    <rect id="矩形" fill="#1A67CB" x="5" y="2" width="5" height="5"></rect>
                </g>
            </g>
        </g>
    </g>
</svg>