<?xml version="1.0" encoding="UTF-8"?>
<svg width="15px" height="13px" viewBox="0 0 15 13" version="1.1" xmlns="http://www.w3.org/2000/svg" xmlns:xlink="http://www.w3.org/1999/xlink">
    <!-- Generator: Sketch 59.1 (86144) - https://sketch.com -->
    <title>13画面右下</title>
    <desc>Created with Sketch.</desc>
    <g id="图标库" stroke="none" stroke-width="1" fill="none" fill-rule="evenodd">
        <g id="VDCP" transform="translate(-503.000000, -448.000000)">
            <g id="视频会议" transform="translate(15.000000, 5.000000)">
                <g id="13画面右下" transform="translate(488.000000, 442.000000)">
                    <rect id="矩形" fill="#000000" fill-rule="nonzero" opacity="0" x="0" y="0" width="16" height="16"></rect>
                    <path d="M10,1 L9,1 L5,1 L4,1 L0,1 L0,5 L0,6 L0,9 L0,10 L0,14 L9,14 L10,14 L15,14 L15,1 L10,1 Z M10,2 L10,4 L8,4 L8,2 L10,2 Z M10,5 L10,7 L8,7 L8,5 L10,5 Z M4,5 L4,7 L2,7 L2,5 L4,5 Z M2,11 L4,11 L4,13 L2,13 L2,11 Z M5,5 L7,5 L7,7 L5,7 L5,5 Z M7,11 L7,13 L5,13 L5,11 L7,11 Z M4,2 L4,4 L2,4 L2,2 L4,2 Z M2,8 L4,8 L4,10 L2,10 L2,8 Z M5,2 L7,2 L7,4 L5,4 L5,2 Z M5,8 L7,8 L7,10 L5,10 L5,8 Z M11,5 L13,5 L13,7 L11,7 L11,5 Z M11,2 L13,2 L13,4 L11,4 L11,2 Z" id="形状" fill="#98C4FB" fill-rule="nonzero"></path>
                    <rect id="矩形" fill="#1A67CB" x="8" y="8" width="5" height="5"></rect>
                </g>
            </g>
        </g>
    </g>
</svg>