<?xml version="1.0" encoding="UTF-8"?>
<svg width="16px" height="13px" viewBox="0 0 16 13" version="1.1" xmlns="http://www.w3.org/2000/svg" xmlns:xlink="http://www.w3.org/1999/xlink">
    <!-- Generator: Sketch 59.1 (86144) - https://sketch.com -->
    <title>20画面</title>
    <desc>Created with Sketch.</desc>
    <g id="图标库" stroke="none" stroke-width="1" fill="none" fill-rule="evenodd">
        <g id="VDCP" transform="translate(-395.000000, -496.000000)">
            <g id="视频会议" transform="translate(15.000000, 5.000000)">
                <g id="20画面" transform="translate(380.000000, 490.000000)">
                    <rect id="矩形" fill="#000000" fill-rule="nonzero" opacity="0" x="0" y="0" width="16" height="16"></rect>
                    <path d="M10.6666667,1 L9.6,1 L5.33333333,1 L4.26666667,1 L0,1 L0,5 L0,6 L0,9 L0,10 L0,14 L9.6,14 L10.6666667,14 L16,14 L16,1 L10.6666667,1 Z M9,2 L9,4 L7,4 L7,2 L9,2 Z M12,11 L12,13 L10,13 L10,11 L12,11 Z M3,5 L3,7 L1,7 L1,5 L3,5 Z M1,11 L3,11 L3,13 L1,13 L1,11 Z M7,11 L9,11 L9,13 L7,13 L7,11 Z M6,11 L6,13 L4,13 L4,11 L6,11 Z M9,8 L9,10 L7,10 L7,8 L9,8 Z M6,8 L6,10 L4,10 L4,8 L6,8 Z M6,5 L6,7 L4,7 L4,5 L6,5 Z M9,5 L9,7 L7,7 L7,5 L9,5 Z M1,8 L3,8 L3,10 L1,10 L1,8 Z M4,2 L6,2 L6,4 L4,4 L4,2 Z M10,8 L12,8 L12,10 L10,10 L10,8 Z M10,5 L12,5 L12,7 L10,7 L10,5 Z M10,2 L12,2 L12,4 L10,4 L10,2 Z M13,2 L15,2 L15,4 L13,4 L13,2 Z M13,5 L15,5 L15,7 L13,7 L13,5 Z M13,8 L15,8 L15,10 L13,10 L13,8 Z M13,11 L15,11 L15,13 L13,13 L13,11 Z" id="形状" fill="#98C4FB" fill-rule="nonzero"></path>
                    <rect id="矩形" fill="#1A67CB" x="1" y="2" width="2" height="2"></rect>
                </g>
            </g>
        </g>
    </g>
</svg>