<?xml version="1.0" encoding="UTF-8"?>
<svg width="16px" height="16px" viewBox="0 0 16 16" version="1.1" xmlns="http://www.w3.org/2000/svg" xmlns:xlink="http://www.w3.org/1999/xlink">
    <!-- Generator: Sketch 59.1 (86144) - https://sketch.com -->
    <title>25画面</title>
    <desc>Created with Sketch.</desc>
    <g id="图标库" stroke="none" stroke-width="1" fill="none" fill-rule="evenodd">
        <g id="VDCP" transform="translate(-395.000000, -518.000000)">
            <g id="视频会议" transform="translate(15.000000, 5.000000)">
                <g id="25画面" transform="translate(380.000000, 512.000000)">
                    <rect id="矩形" fill="#000000" fill-rule="nonzero" opacity="0" x="0" y="0" width="16" height="16"></rect>
                    <path d="M10.6666667,1 L9.6,1 L5.33333333,1 L4.26666667,1 L0,1 L0,5.92307692 L0,7.15384615 L0,10.8461538 L0,12.0769231 L0,17 L9.6,17 L10.6666667,17 L16,17 L16,1 L10.6666667,1 Z M9,2 L9,4 L7,4 L7,2 L9,2 Z M12,11 L12,13 L10,13 L10,11 L12,11 Z M3,5 L3,7 L1,7 L1,5 L3,5 Z M1,11 L3,11 L3,13 L1,13 L1,11 Z M7,11 L9,11 L9,13 L7,13 L7,11 Z M6,11 L6,13 L4,13 L4,11 L6,11 Z M9,8 L9,10 L7,10 L7,8 L9,8 Z M6,8 L6,10 L4,10 L4,8 L6,8 Z M6,5 L6,7 L4,7 L4,5 L6,5 Z M9,5 L9,7 L7,7 L7,5 L9,5 Z M1,8 L3,8 L3,10 L1,10 L1,8 Z M4,2 L6,2 L6,4 L4,4 L4,2 Z M10,8 L12,8 L12,10 L10,10 L10,8 Z M10,5 L12,5 L12,7 L10,7 L10,5 Z M10,2 L12,2 L12,4 L10,4 L10,2 Z M13,2 L15,2 L15,4 L13,4 L13,2 Z M13,5 L15,5 L15,7 L13,7 L13,5 Z M13,8 L15,8 L15,10 L13,10 L13,8 Z M13,11 L15,11 L15,13 L13,13 L13,11 Z M13,14 L15,14 L15,16 L13,16 L13,14 Z M10,14 L12,14 L12,16 L10,16 L10,14 Z M7,14 L9,14 L9,16 L7,16 L7,14 Z M4,14 L6,14 L6,16 L4,16 L4,14 Z M1,14 L3,14 L3,16 L1,16 L1,14 Z" id="形状" fill="#98C4FB" fill-rule="nonzero"></path>
                    <rect id="矩形" fill="#1A67CB" x="1" y="2" width="2" height="2"></rect>
                </g>
            </g>
        </g>
    </g>
</svg>