<?xml version="1.0" encoding="UTF-8"?>
<svg width="16px" height="13px" viewBox="0 0 16 13" version="1.1" xmlns="http://www.w3.org/2000/svg" xmlns:xlink="http://www.w3.org/1999/xlink">
    <!-- Generator: Sketch 59.1 (86144) - https://sketch.com -->
    <title>5画面左</title>
    <desc>Created with Sketch.</desc>
    <g id="图标库" stroke="none" stroke-width="1" fill="none" fill-rule="evenodd">
        <g id="VDCP" transform="translate(-467.000000, -304.000000)">
            <g id="视频会议" transform="translate(15.000000, 5.000000)">
                <g id="5画面左" transform="translate(452.000000, 298.000000)">
                    <rect id="矩形" fill="#000000" fill-rule="nonzero" opacity="0" x="0" y="0" width="16" height="16"></rect>
                    <path d="M10.6666667,1 L9.6,1 L5.33333333,1 L4.26666667,1 L0,1 L0,5 L0,6 L0,9 L0,10 L0,14 L9.6,14 L10.6666667,14 L16,14 L16,1 L10.6666667,1 Z M15,11 L15,13 L12,13 L12,11 L15,11 Z M15,8 L15,10 L12,10 L12,8 L15,8 Z M12,5 L15,5 L15,7 L12,7 L12,5 Z M12,2 L15,2 L15,4 L12,4 L12,2 Z" id="形状" fill="#98C4FB" fill-rule="nonzero"></path>
                    <rect id="矩形" fill="#1A67CB" x="1" y="2" width="10" height="11"></rect>
                </g>
            </g>
        </g>
    </g>
</svg>