<?xml version="1.0" encoding="UTF-8"?>
<svg width="15px" height="13px" viewBox="0 0 15 13" version="1.1" xmlns="http://www.w3.org/2000/svg" xmlns:xlink="http://www.w3.org/1999/xlink">
    <!-- Generator: Sketch 59.1 (86144) - https://sketch.com -->
    <title>6画面</title>
    <desc>Created with Sketch.</desc>
    <g id="图标库" stroke="none" stroke-width="1" fill="none" fill-rule="evenodd">
        <g id="VDCP" transform="translate(-395.000000, -328.000000)">
            <g id="视频会议" transform="translate(15.000000, 5.000000)">
                <g id="6画面" transform="translate(380.000000, 322.000000)">
                    <rect id="矩形" fill="#000000" fill-rule="nonzero" opacity="0" x="0" y="0" width="16" height="16"></rect>
                    <path d="M10,1 L9,1 L5,1 L4,1 L0,1 L0,5 L0,6 L0,9 L0,10 L0,14 L9,14 L10,14 L15,14 L15,1 L10,1 Z M14,2 L14,5 L8,5 L8,2 L14,2 Z M14,10 L14,13 L8,13 L8,10 L14,10 Z M8,6 L14,6 L14,9 L8,9 L8,6 Z M1,10 L7,10 L7,13 L1,13 L1,10 Z M1,6 L7,6 L7,9 L1,9 L1,6 Z" id="形状" fill="#98C4FB" fill-rule="nonzero"></path>
                    <rect id="矩形" fill="#1A67CB" x="1" y="2" width="6" height="3"></rect>
                </g>
            </g>
        </g>
    </g>
</svg>