<?xml version="1.0" encoding="UTF-8"?>
<svg width="15px" height="13px" viewBox="0 0 15 13" version="1.1" xmlns="http://www.w3.org/2000/svg" xmlns:xlink="http://www.w3.org/1999/xlink">
    <!-- Generator: Sketch 59.1 (86144) - https://sketch.com -->
    <title>7画面全屏</title>
    <desc>Created with Sketch.</desc>
    <g id="图标库" stroke="none" stroke-width="1" fill="none" fill-rule="evenodd">
        <g id="VDCP" transform="translate(-539.000000, -352.000000)">
            <g id="视频会议" transform="translate(15.000000, 5.000000)">
                <g id="7画面全屏" transform="translate(524.000000, 346.000000)">
                    <rect id="矩形" fill="#000000" fill-rule="nonzero" opacity="0" x="0" y="0" width="16" height="16"></rect>
                    <polygon id="形状" fill="#98C4FB" fill-rule="nonzero" points="10 1 9 1 5 1 4 1 0 1 0 5 0 6 0 9 0 10 0 14 9 14 10 14 15 14 15 1"></polygon>
                    <rect id="矩形" fill="#1A67CB" x="1" y="2" width="13" height="11"></rect>
                    <rect id="矩形" stroke="#98C4FB" x="1.5" y="9.5" width="2" height="2"></rect>
                    <rect id="矩形" stroke="#98C4FB" x="3.5" y="9.5" width="2" height="2"></rect>
                    <rect id="矩形" stroke="#98C4FB" x="5.5" y="9.5" width="2" height="2"></rect>
                    <rect id="矩形" stroke="#98C4FB" x="7.5" y="9.5" width="2" height="2"></rect>
                    <rect id="矩形" stroke="#98C4FB" x="9.5" y="9.5" width="2" height="2"></rect>
                    <rect id="矩形" stroke="#98C4FB" x="11.5" y="9.5" width="2" height="2"></rect>
                </g>
            </g>
        </g>
    </g>
</svg>