<?xml version="1.0" encoding="UTF-8"?>
<svg width="16px" height="13px" viewBox="0 0 16 13" version="1.1" xmlns="http://www.w3.org/2000/svg" xmlns:xlink="http://www.w3.org/1999/xlink">
    <!-- Generator: Sketch 59.1 (86144) - https://sketch.com -->
    <title>7画面左下</title>
    <desc>Created with Sketch.</desc>
    <g id="图标库" stroke="none" stroke-width="1" fill="none" fill-rule="evenodd">
        <g id="VDCP" transform="translate(-503.000000, -352.000000)">
            <g id="视频会议" transform="translate(15.000000, 5.000000)">
                <g id="7画面左下" transform="translate(488.000000, 346.000000)">
                    <rect id="矩形" fill="#000000" fill-rule="nonzero" opacity="0" x="0" y="0" width="16" height="16"></rect>
                    <path d="M10.6666667,1 L9.6,1 L5.33333333,1 L4.26666667,1 L0,1 L0,5 L0,6 L0,9 L0,10 L0,14 L9.6,14 L10.6666667,14 L16,14 L16,1 L10.6666667,1 Z M3,6 L3,9 L1,9 L1,6 L3,6 Z M3,2 L3,5 L1,5 L1,2 L3,2 Z M3,10 L3,13 L1,13 L1,10 L3,10 Z M15,2 L15,5 L12,5 L12,2 L15,2 Z M8,2 L11,2 L11,5 L8,5 L8,2 Z M4,2 L7,2 L7,5 L4,5 L4,2 Z" id="形状" fill="#98C4FB" fill-rule="nonzero"></path>
                    <rect id="矩形" fill="#1A67CB" x="4" y="6" width="11" height="7"></rect>
                </g>
            </g>
        </g>
    </g>
</svg>