<?xml version="1.0" encoding="UTF-8"?>
<svg width="16px" height="15px" viewBox="0 0 16 15" version="1.1" xmlns="http://www.w3.org/2000/svg" xmlns:xlink="http://www.w3.org/1999/xlink">
    <!-- Generator: Sketch 59.1 (86144) - https://sketch.com -->
    <title>会场</title>
    <desc>Created with Sketch.</desc>
    <g id="图标库" stroke="none" stroke-width="1" fill="none" fill-rule="evenodd">
        <g id="VDCP" transform="translate(-280.000000, -290.000000)" fill-rule="nonzero">
            <g id="视频会议" transform="translate(15.000000, 5.000000)">
                <g id="会场列表" transform="translate(15.000000, 255.000000)">
                    <g id="会场" transform="translate(250.000000, 30.000000)">
                        <rect id="矩形" fill="#000000" opacity="0" x="0" y="0" width="16" height="16"></rect>
                        <path d="M3.67998891,7.3055821 C2.86675383,6.59441409 2.34647549,5.50487859 2.34647549,4.28351126 C2.34647549,2.14078612 3.94781219,0.403747113 5.92316899,0.403747113 C7.89852578,0.403747113 9.49984247,2.14078612 9.49984247,4.28351126 C9.49984247,5.50487859 8.97958414,6.59441409 8.16632906,7.3055821 C10.3254242,8.26462153 11.8463378,10.5666049 11.8463378,13.2539362 C11.8463378,13.5131616 11.8321903,13.7688107 11.8046755,14.02 L10.5172668,14.02 C10.5528364,13.7664439 10.5706561,13.5103681 10.5705753,13.2539362 C10.5705753,10.46974 8.48986214,8.21269888 5.92316899,8.21269888 C3.35647583,8.21269888 1.27576267,10.46974 1.27576267,13.2539362 C1.27576267,13.5143681 1.29397241,13.7701896 1.32907119,14.02 L0.0416624341,14.02 C0.0138595302,13.7657435 -2.66453526e-15,13.5099487 -2.66453526e-15,13.2539362 C-2.66453526e-15,10.5666049 1.52093383,8.26462153 3.67998891,7.3055821 Z M5.92316899,6.77941817 C7.19392883,6.77941817 8.22409996,5.66198232 8.22409996,4.2835328 C8.22409996,2.90508328 7.19394884,1.78762589 5.92316899,1.78762589 C4.65240914,1.78762589 3.62223801,2.90508328 3.62223801,4.2835328 C3.62223801,5.66196078 4.65238913,6.77941817 5.92316899,6.77941817 Z M10.0805732,-8.8817842e-15 C12.0546693,-8.8817842e-15 13.6550054,1.73736218 13.6550054,3.88053975 C13.6550054,5.10212253 13.1350673,6.19187348 12.3223325,6.9031923 C14.4800268,7.86242563 16,10.164883 16,12.8527313 C16,13.1119999 15.9858724,13.367692 15.9583777,13.618946 L14.6717694,13.618946 C14.7073213,13.3653373 14.7251343,13.1092123 14.7250579,12.8527313 C14.7250579,10.067975 12.6456455,7.81050298 10.0805732,7.81050298 L10.0957813,7.81050298 C9.72808458,7.81050298 9.43002512,7.48959512 9.43002512,7.09371181 C9.43002512,6.69785005 9.72808458,6.37692065 10.0957813,6.37692065 L10.0805732,6.37692065 C11.3505326,6.37692065 12.3800434,5.25924781 12.3800434,3.88053975 C12.3800434,2.50181015 11.3505326,1.38415886 10.0805732,1.38415886 C9.99172563,1.38415886 9.88795011,1.39564217 9.76926661,1.41867342 C9.45990111,1.47867533 9.16390275,1.2572823 9.10817294,0.924158613 C9.10562699,0.908927727 9.10361781,0.893598478 9.10214971,0.878203832 C9.06218833,0.459806344 9.33887636,0.0831839703 9.72626361,0.0286975002 C9.86239644,0.00956583341 9.98049962,-8.8817842e-15 10.0805732,-8.8817842e-15 L10.0805732,-8.8817842e-15 Z" id="形状" fill="#FFFFFF"></path>
                    </g>
                </g>
            </g>
        </g>
    </g>
</svg>