<?xml version="1.0" encoding="UTF-8"?>
<svg width="16px" height="16px" viewBox="0 0 16 16" version="1.1" xmlns="http://www.w3.org/2000/svg" xmlns:xlink="http://www.w3.org/1999/xlink">
    <!-- Generator: Sketch 59.1 (86144) - https://sketch.com -->
    <title>删除</title>
    <desc>Created with Sketch.</desc>
    <g id="图标库" stroke="none" stroke-width="1" fill="none" fill-rule="evenodd">
        <g id="VDCP" transform="translate(-260.000000, -210.000000)" fill-rule="nonzero">
            <g id="视频会议" transform="translate(15.000000, 5.000000)">
                <g id="会场" transform="translate(15.000000, 170.000000)">
                    <g id="删除" transform="translate(230.000000, 35.000000)">
                        <rect id="矩形" fill="#000000" opacity="0" x="0" y="0" width="16" height="16"></rect>
                        <path d="M0.8015625,2.4703125 C0.8015625,2.8234375 1.0875,3.1109375 1.4421875,3.1109375 L14.5375,3.1109375 C14.890625,3.1109375 15.178125,2.825 15.178125,2.4703125 C15.178125,2.1171875 14.8921875,1.8296875 14.5375,1.8296875 L1.4421875,1.8296875 C1.0875,1.83125 0.8015625,2.1171875 0.8015625,2.4703125 Z" id="路径" fill="#B6D3FF"></path>
                        <path d="M8.4640625,0.4328125 L7.6609375,0.4328125 C7.3078125,0.4328125 7.0203125,0.71875 7.0203125,1.0734375 L7.0203125,2.471875 C7.0203125,2.825 7.30625,3.1125 7.6609375,3.1125 L8.4640625,3.1125 C8.8171875,3.1125 9.1046875,2.8265625 9.1046875,2.471875 L9.1046875,1.071875 C9.1046875,0.71875 8.8171875,0.4328125 8.4640625,0.4328125 Z" id="路径" fill="#B6D3FF"></path>
                        <path d="M13.7921875,3.7640625 L13.7921875,14.371875 C13.7921875,14.984375 13.296875,15.478125 12.6859375,15.478125 L3.290625,15.478125 C2.6796875,15.478125 2.184375,14.9828125 2.184375,14.371875 L2.184375,3.7640625 L13.7921875,3.7640625 Z M11.1140625,5.1390625 C10.7609375,5.1390625 10.4734375,5.425 10.4734375,5.7796875 L10.4734375,12.9375 C10.4734375,13.290625 10.759375,13.578125 11.1140625,13.578125 C11.4671875,13.578125 11.7546875,13.2921875 11.7546875,12.9375 L11.7546875,5.778125 C11.7546875,5.425 11.4671875,5.1390625 11.1140625,5.1390625 Z M4.8640625,5.1390625 C4.5109375,5.1390625 4.2234375,5.425 4.2234375,5.7796875 L4.2234375,12.9375 C4.2234375,13.290625 4.509375,13.578125 4.8640625,13.578125 C5.2171875,13.578125 5.5046875,13.2921875 5.5046875,12.9375 L5.5046875,5.778125 C5.5046875,5.425 5.2171875,5.1390625 4.8640625,5.1390625 Z M7.9890625,5.1390625 C7.6359375,5.1390625 7.3484375,5.425 7.3484375,5.7796875 L7.3484375,12.9375 C7.3484375,13.290625 7.634375,13.578125 7.9890625,13.578125 C8.3421875,13.578125 8.6296875,13.2921875 8.6296875,12.9375 L8.6296875,5.778125 C8.6296875,5.425 8.3421875,5.1390625 7.9890625,5.1390625 Z" id="形状结合" fill="#B6D3FF"></path>
                    </g>
                </g>
            </g>
        </g>
    </g>
</svg>