<?xml version="1.0" encoding="UTF-8"?>
<svg width="14px" height="16px" viewBox="0 0 14 16" version="1.1" xmlns="http://www.w3.org/2000/svg" xmlns:xlink="http://www.w3.org/1999/xlink">
    <!-- Generator: Sketch 59.1 (86144) - https://sketch.com -->
    <title>发言</title>
    <desc>Created with Sketch.</desc>
    <g id="图标库" stroke="none" stroke-width="1" fill="none" fill-rule="evenodd">
        <g id="VDCP" transform="translate(-41.000000, -210.000000)" fill-rule="nonzero">
            <g id="视频会议" transform="translate(15.000000, 5.000000)">
                <g id="会场" transform="translate(15.000000, 170.000000)">
                    <g id="发言" transform="translate(10.000000, 35.000000)">
                        <rect id="矩形" fill="#000000" opacity="0" x="0" y="0" width="16" height="16"></rect>
                        <path d="M8.51923077,14.0615385 L8.51923077,14.7692308 L9.75,14.7692308 C10.0898675,14.7692308 10.3653846,15.0447478 10.3653846,15.3846154 C10.3653846,15.7244829 10.0898675,16 9.75,16 L6.05769231,16 C5.71782477,16 5.4423077,15.7244829 5.4423077,15.3846154 C5.4423077,15.0447478 5.71782477,14.7692308 6.05769231,14.7692308 L7.28846155,14.7692308 L7.28846155,14.0615385 C4.17892308,13.7532308 1.75,11.1292308 1.75,7.93846153 L1.75,7.38461539 C1.75,7.04474785 2.02551708,6.76923077 2.36538462,6.76923077 C2.70525216,6.76923077 2.98076923,7.04474785 2.98076923,7.38461539 L2.98076923,7.93846153 C2.98076923,10.6574018 5.18490585,12.8615385 7.90384616,12.8615385 C10.6227865,12.8615385 12.8269231,10.6574018 12.8269231,7.93846153 L12.8269231,7.38461539 C12.8269231,7.04474785 13.1024402,6.76923077 13.4423077,6.76923077 C13.7821752,6.76923077 14.0576923,7.04474785 14.0576923,7.38461539 L14.0576923,7.93846153 C14.0576923,11.1292308 11.6287692,13.7532308 8.51923077,14.0615385 Z" id="路径" fill="#B6D3FF"></path>
                        <path d="M7.90384616,0 C9.94305138,0 11.5961538,1.65310246 11.5961538,3.69230769 L11.5961538,8 C11.5961538,10.0392052 9.94305138,11.6923077 7.90384616,11.6923077 C5.86464093,11.6923077 4.21153847,10.0392052 4.21153847,8 L4.21153847,3.69230769 C4.21153847,1.65310246 5.86464093,0 7.90384616,0 Z" id="路径" fill="#B6D3FF"></path>
                    </g>
                </g>
            </g>
        </g>
    </g>
</svg>