<?xml version="1.0" encoding="UTF-8"?>
<svg width="16px" height="16px" viewBox="0 0 16 16" version="1.1" xmlns="http://www.w3.org/2000/svg" xmlns:xlink="http://www.w3.org/1999/xlink">
    <!-- Generator: Sketch 59.1 (86144) - https://sketch.com -->
    <title>广播故障</title>
    <desc>Created with Sketch.</desc>
    <g id="图标库" stroke="none" stroke-width="1" fill="none" fill-rule="evenodd">
        <g id="VDCP" transform="translate(-130.000000, -210.000000)" fill-rule="nonzero">
            <g id="视频会议" transform="translate(15.000000, 5.000000)">
                <g id="会场" transform="translate(15.000000, 170.000000)">
                    <g id="广播故障" transform="translate(100.000000, 35.000000)">
                        <rect id="矩形" fill="#000000" opacity="0" x="0" y="0" width="16" height="16"></rect>
                        <path d="M7.94924373,0.262687332 L2.15062741,4.82877931 L1.04612907,4.82877931 C0.493879885,4.82877931 0.0798666719,5.21995235 0.0798666719,5.87234496 L0.0798666719,9.78571616 C0.0798666719,10.307499 0.493879885,10.8292818 1.04612907,10.8292818 L2.0127388,10.8292818 L7.94924373,15.5253272 C7.94924373,15.5253272 9.32986667,16.4382831 9.32986667,14.742653 L9.32986667,1.0450334 C9.32986667,-0.65059671 7.94924373,0.26235916 7.94924373,0.26235916" id="路径" fill="#B6D3FF"></path>
                        <polygon id="路径" fill="#B6D3FF" points="12.7046876 7.02683226 14.5668038 5.43261132 15.5798667 6.29962227 13.7177504 7.8938432 15.5798667 9.48806413 14.5668038 10.3553817 12.7046876 8.7611607 10.8425714 10.3553817 9.82986667 9.48806413 11.6919829 7.8938432 9.82986667 6.29962227 10.8425714 5.43230474 12.7046876 7.0265257"></polygon>
                    </g>
                </g>
            </g>
        </g>
    </g>
</svg>