<?xml version="1.0" encoding="UTF-8"?>
<svg width="15px" height="16px" viewBox="0 0 15 16" version="1.1" xmlns="http://www.w3.org/2000/svg" xmlns:xlink="http://www.w3.org/1999/xlink">
    <!-- Generator: Sketch 59.1 (86144) - https://sketch.com -->
    <title>广播</title>
    <desc>Created with Sketch.</desc>
    <g id="图标库" stroke="none" stroke-width="1" fill="none" fill-rule="evenodd">
        <g id="VDCP" transform="translate(-101.000000, -210.000000)" fill-rule="nonzero">
            <g id="视频会议" transform="translate(15.000000, 5.000000)">
                <g id="会场" transform="translate(15.000000, 170.000000)">
                    <g id="广播" transform="translate(70.000000, 35.000000)">
                        <rect id="矩形" fill="#000000" opacity="0" x="0" y="0" width="16" height="16"></rect>
                        <polygon id="路径" fill="#B6D3FF" points="1.28814124 5.47636952 1.28814124 10.5932233 4.4784567 10.5932233 8.46853272 14.856854 8.46853272 1.21106072 4.4784567 5.47636954"></polygon>
                        <path d="M12.0598091,8.03422978 C12.0598091,6.49953541 11.2610476,5.21945025 10.0644856,4.62262344 L10.0644856,11.4452695 C11.2610476,10.8484209 12.0598091,9.57007918 12.0598091,8.03422978" id="路径" fill="#B6D3FF"></path>
                        <path d="M10.0644856,0.528957359 L10.0644856,2.32002617 C12.3788855,3.08795088 14.054582,5.30472678 14.054582,8.03425156 C14.054582,10.7631879 12.3788855,12.9811189 10.0644856,13.7478886 L10.0644856,15.5389574 C13.2563711,14.7710326 15.6504942,11.7010555 15.6504942,8.03425156 C15.6504942,4.36744763 13.2563711,1.29688207 10.0644856,0.528957359" id="路径" fill="#B6D3FF"></path>
                    </g>
                </g>
            </g>
        </g>
    </g>
</svg>