<?xml version="1.0" encoding="UTF-8"?>
<svg width="64px" height="64px" viewBox="0 0 64 64" version="1.1" xmlns="http://www.w3.org/2000/svg" xmlns:xlink="http://www.w3.org/1999/xlink">
    <!-- Generator: Sketch 59.1 (86144) - https://sketch.com -->
    <title>拒听</title>
    <desc>Created with Sketch.</desc>
    <g id="图标库" stroke="none" stroke-width="1" fill="none" fill-rule="evenodd">
        <g id="电话" transform="translate(-140.000000, -40.000000)">
            <g id="拒听" transform="translate(140.000000, 40.000000)">
                <circle id="椭圆形" fill-opacity="0.65" fill="#C91A0A" cx="32" cy="32" r="32"></circle>
                <path d="M17.8891486,17.2297609 C20.3897623,15.7864147 22.3112865,16.5870551 24.2328106,19.1381365 C26.4921371,22.1410862 28.0100534,25.0738427 25.5774389,27.1840235 C25.5774389,27.1840235 22.9232787,29.4214294 29.1353296,36.0086156 C36.411238,43.6684404 38.9930119,40.4527178 38.9930119,40.4527178 C41.6603332,37.7897661 43.65205,39.4831752 46.6681411,41.7183876 C49.6820386,43.9514064 50.6384137,46.2085541 48.0434786,49.4484055 C43.0466383,55.6912066 31.3113022,46.88855 26.748779,42.4378672 C26.748779,42.4378672 19.7711894,35.6686176 17.4482509,31.4087723 L16.1782024,29.1318828 C14.5067396,25.8635154 13.7433943,22.1915375 15.2942135,19.607553 C15.2942135,19.607553 15.9325281,18.361625 17.8891486,17.2297609 Z" id="路径" fill="#FFFFFF" fill-rule="nonzero" transform="translate(32.000000, 34.064516) rotate(136.000000) translate(-32.000000, -34.064516) "></path>
            </g>
        </g>
    </g>
</svg>