<?xml version="1.0" encoding="UTF-8"?>
<svg width="62px" height="62px" viewBox="0 0 62 62" version="1.1" xmlns="http://www.w3.org/2000/svg" xmlns:xlink="http://www.w3.org/1999/xlink">
    <!-- Generator: Sketch 59.1 (86144) - https://sketch.com -->
    <title>拨号取消</title>
    <desc>Created with Sketch.</desc>
    <g id="图标库" stroke="none" stroke-width="1" fill="none" fill-rule="evenodd">
        <g id="电话" transform="translate(-340.000000, -40.000000)">
            <g id="拨号取消" transform="translate(340.000000, 40.000000)">
                <circle id="椭圆形" fill-opacity="0.6" fill="#2EA0FF" cx="31" cy="31" r="31"></circle>
                <path d="M48,23 L48,40 L22,40 L13,31.5 L22,23 L48,23 Z M38.0153201,25 C37.9552247,25 37.8976615,25.0242022 37.8556217,25.0671446 L37.8556217,25.0671446 L33.4892914,29.4324621 L29.1443783,25.0885615 C29.0560812,25.0006012 28.9132785,25.0006012 28.8249815,25.0885615 L28.8249815,25.0885615 L27.0659715,26.8475386 C26.9780095,26.935834 26.9780095,27.078634 27.0659715,27.1669294 L27.0659715,27.1669294 L31.4118158,31.51083 L27.0883199,35.834245 C27.0458422,35.8765334 27.0219625,35.9340021 27.0219625,35.9939404 C27.0219625,36.0538787 27.0458422,36.1113473 27.0883199,36.1536358 L27.0883199,36.1536358 L28.84733,37.9126129 C28.935627,38.0005732 29.0784297,38.0005732 29.1667267,37.9126129 L29.1667267,37.9126129 L33.4892914,33.5901291 L37.8332733,37.9340298 C37.9215703,38.0219901 38.064373,38.0219901 38.15267,37.9340298 L38.15267,37.9340298 L39.9126113,36.1750526 C40.000681,36.0864385 40.000681,35.9433448 39.9126113,35.8547307 L39.9126113,35.8547307 L35.5686293,31.51083 L39.9340285,27.1455125 C40.0219905,27.0572172 40.0219905,26.9144171 39.9340285,26.8261218 L39.9340285,26.8261218 L38.1750185,25.0671446 C38.1329787,25.0242022 38.0754156,25 38.0153201,25 Z" id="形状结合" fill="#FFFFFF"></path>
            </g>
        </g>
    </g>
</svg>