<?xml version="1.0" encoding="UTF-8"?>
<svg width="22px" height="8px" viewBox="0 0 22 8" version="1.1" xmlns="http://www.w3.org/2000/svg" xmlns:xlink="http://www.w3.org/1999/xlink">
    <!-- Generator: Sketch 59.1 (86144) - https://sketch.com -->
    <title>据听2</title>
    <desc>Created with Sketch.</desc>
    <g id="图标库" stroke="none" stroke-width="1" fill="none" fill-rule="evenodd">
        <g id="VDCP" transform="translate(-193.000000, -212.000000)" fill-rule="nonzero">
            <g id="视频会议" transform="translate(15.000000, 5.000000)">
                <g id="会场" transform="translate(15.000000, 170.000000)">
                    <g id="据听2" transform="translate(162.000000, 30.000000)">
                        <rect id="矩形" fill="#000000" opacity="0" x="0" y="0" width="24" height="24"></rect>
                        <path d="M5.56711185,4.32533217 C6.7070975,3.66733612 7.58308647,4.03233394 8.45907544,5.19532693 C9.48906248,6.56431869 10.1810538,7.90131063 9.07206773,8.86330485 C9.07206773,8.86330485 7.86208296,9.88329871 10.6940473,12.8862806 C14.0110055,16.3782596 15.1879907,14.9122684 15.1879907,14.9122684 C16.4039754,13.6982757 17.311964,14.4702711 18.6869467,15.4892649 C20.0609294,16.5072588 20.4969239,17.5362526 19.3139388,19.0132437 C17.0359675,21.8592266 11.6860348,17.8462507 9.60606101,15.817263 C9.60606101,15.817263 6.42510105,12.7312816 5.36611438,10.7892933 L4.78712167,9.7512995 C4.02513127,8.26130848 3.67713565,6.58731857 4.38412676,5.40932565 C4.38412676,5.40932565 4.6751231,4.84132906 5.56711185,4.32533217 Z" id="接听2" fill="#B6D3FF" transform="translate(12.000000, 12.000000) rotate(-225.000000) translate(-12.000000, -12.000000) "></path>
                    </g>
                </g>
            </g>
        </g>
    </g>
</svg>