<?xml version="1.0" encoding="UTF-8"?>
<svg width="16px" height="16px" viewBox="0 0 16 16" version="1.1" xmlns="http://www.w3.org/2000/svg" xmlns:xlink="http://www.w3.org/1999/xlink">
    <!-- Generator: Sketch 59.1 (86144) - https://sketch.com -->
    <title>接听2</title>
    <desc>Created with Sketch.</desc>
    <g id="图标库" stroke="none" stroke-width="1" fill="none" fill-rule="evenodd">
        <g id="VDCP" transform="translate(-160.000000, -210.000000)" fill="#B6D3FF" fill-rule="nonzero">
            <g id="视频会议" transform="translate(15.000000, 5.000000)">
                <g id="会场" transform="translate(15.000000, 170.000000)">
                    <g id="接听2" transform="translate(130.000000, 35.000000)">
                        <path d="M1.56711185,0.325332167 C2.7070975,-0.332663878 3.58308647,0.0323339393 4.45907544,1.19532693 C5.48906248,2.56431869 6.18105376,3.90131063 5.07206773,4.86330485 C5.07206773,4.86330485 3.86208296,5.88329871 6.6940473,8.88628062 C10.0110055,12.3782596 11.1879907,10.9122684 11.1879907,10.9122684 C12.4039754,9.69827572 13.311964,10.4702711 14.6869467,11.4892649 C16.0609294,12.5072588 16.4969239,13.5362526 15.3139388,15.0132437 C13.0359675,17.8592266 7.68603483,13.8462507 5.60606101,11.817263 C5.60606101,11.817263 2.42510105,8.73128156 1.36611438,6.78929325 L0.787121673,5.7512995 C0.0251312663,4.26130848 -0.322864352,2.58731857 0.384126762,1.40932565 C0.384126762,1.40932565 0.675123099,0.841329059 1.56711185,0.325332167 Z"></path>
                    </g>
                </g>
            </g>
        </g>
    </g>
</svg>