<?xml version="1.0" encoding="UTF-8"?>
<svg width="64px" height="64px" viewBox="0 0 64 64" version="1.1" xmlns="http://www.w3.org/2000/svg" xmlns:xlink="http://www.w3.org/1999/xlink">
    <!-- Generator: Sketch 59.1 (86144) - https://sketch.com -->
    <title>接听</title>
    <desc>Created with Sketch.</desc>
    <g id="图标库" stroke="none" stroke-width="1" fill="none" fill-rule="evenodd">
        <g id="电话" transform="translate(-240.000000, -40.000000)">
            <g id="接听" transform="translate(240.000000, 40.000000)">
                <circle id="椭圆形" fill-opacity="0.651251093" fill="#5BD500" cx="32" cy="32" r="32"></circle>
                <path d="M17.8891486,15.1652448 C20.3897623,13.7218986 22.3112865,14.522539 24.2328106,17.0736204 C26.4921371,20.07657 28.0100534,23.0093265 25.5774389,25.1195074 C25.5774389,25.1195074 22.9232787,27.3569133 29.1353296,33.9440994 C36.411238,41.6039243 38.9930119,38.3882017 38.9930119,38.3882017 C41.6603332,35.72525 43.65205,37.4186591 46.6681411,39.6538715 C49.6820386,41.8868903 50.6384137,44.144038 48.0434786,47.3838894 C43.0466383,53.6266905 31.3113022,44.8240339 26.748779,40.373351 C26.748779,40.373351 19.7711894,33.6041015 17.4482509,29.3442562 L16.1782024,27.0673667 C14.5067396,23.7989993 13.7433943,20.1270214 15.2942135,17.5430369 C15.2942135,17.5430369 15.9325281,16.2971089 17.8891486,15.1652448 Z" id="路径" fill="#FFFFFF" fill-rule="nonzero"></path>
            </g>
        </g>
    </g>
</svg>