<?xml version="1.0" encoding="UTF-8"?>
<svg width="16px" height="16px" viewBox="0 0 16 16" version="1.1" xmlns="http://www.w3.org/2000/svg" xmlns:xlink="http://www.w3.org/1999/xlink">
    <!-- Generator: Sketch 59.1 (86144) - https://sketch.com -->
    <title>查询</title>
    <desc>Created with Sketch.</desc>
    <g id="图标库" stroke="none" stroke-width="1" fill="none" fill-rule="evenodd">
        <g id="VDCP" transform="translate(-320.000000, -290.000000)">
            <g id="视频会议" transform="translate(15.000000, 5.000000)">
                <g id="会场列表" transform="translate(15.000000, 255.000000)">
                    <g id="查询" transform="translate(290.000000, 30.000000)">
                        <rect id="矩形" fill="#000000" opacity="0" x="0" y="0" width="16" height="16"></rect>
                        <path d="M7.03569545,0 C10.921392,0 14.0713709,3.14766476 14.0713709,7.03049976 C14.0713709,8.74529769 13.4570062,10.3167131 12.4362049,11.5369231 L16,15.0965181 L15.095452,16 L11.530637,12.4393663 C10.3116271,13.4520131 8.74481717,14.0609995 7.03569545,14.0609995 C3.14997888,14.0609995 -1.0658141e-14,10.9133347 -1.0658141e-14,7.03049976 C-1.0658141e-14,3.14766476 3.14997888,0 7.03569545,0 Z M7.03569545,1.27827813 C3.85647825,1.27827813 1.27922644,3.85363113 1.27922644,7.03049976 C1.27922644,10.2073684 3.85647825,12.7827214 7.03569545,12.7827214 C10.2149126,12.7827214 12.7921645,10.2073684 12.7921645,7.03049976 C12.7921645,3.85363113 10.2149126,1.27827813 7.03569545,1.27827813 Z" id="形状结合" fill="#ADCCDD" fill-rule="nonzero"></path>
                    </g>
                </g>
            </g>
        </g>
    </g>
</svg>