<?xml version="1.0" encoding="UTF-8"?>
<svg width="12px" height="14px" viewBox="0 0 12 14" version="1.1" xmlns="http://www.w3.org/2000/svg" xmlns:xlink="http://www.w3.org/1999/xlink">
    <!-- Generator: Sketch 59.1 (86144) - https://sketch.com -->
    <title>禁止发言</title>
    <desc>Created with Sketch.</desc>
    <g id="图标库" stroke="none" stroke-width="1" fill="none" fill-rule="evenodd">
        <g id="VDCP" transform="translate(-72.000000, -211.000000)" fill-rule="nonzero">
            <g id="视频会议" transform="translate(15.000000, 5.000000)">
                <g id="会场" transform="translate(15.000000, 170.000000)">
                    <g id="禁止发言" transform="translate(40.000000, 35.000000)">
                        <rect id="矩形" fill="#000000" opacity="0" x="0" y="0" width="16" height="16"></rect>
                        <path d="M8.69375,9.8703125 L4.9734375,4.55625 L4.9734375,6.928125 C4.9734375,8.59375 6.3359375,9.9546875 8,9.9546875 C8.2390625,9.9546875 8.4703125,9.9234375 8.69375,9.8703125 Z" id="路径" fill="#B6D3FF"></path>
                        <path d="M8,11.3421875 C5.565625,11.3421875 3.5859375,9.3625 3.5859375,6.928125 C3.5859375,6.5796875 3.303125,6.296875 2.9546875,6.296875 C2.60625,6.296875 2.3234375,6.5796875 2.3234375,6.928125 C2.3234375,9.8015625 4.46875,12.1796875 7.2421875,12.5515625 L7.2421875,14.24375 C7.2421875,14.659375 7.5828125,15 7.9984375,15 C8.4140625,15 8.7546875,14.659375 8.7546875,14.24375 L8.7546875,12.5515625 C9.2875,12.4796875 9.7953125,12.334375 10.2703125,12.125 L9.5265625,11.0640625 C9.0515625,11.240625 8.5375,11.3421875 8,11.3421875 Z" id="路径" fill="#B6D3FF"></path>
                        <path d="M11.8890625,11.0515625 C12.9875,10.0171875 13.6765625,8.5515625 13.6765625,6.9265625 C13.6765625,6.578125 13.39375,6.2953125 13.0453125,6.2953125 C12.696875,6.2953125 12.4140625,6.578125 12.4140625,6.9265625 C12.4140625,8.1234375 11.9328125,9.209375 11.15625,10.0046875 L10.3359375,8.834375 C10.7640625,8.3125 11.0265625,7.65 11.0265625,6.9265625 L11.0265625,4.0265625 C11.0265625,2.3625 9.6640625,1 8,1 C7.05,1 6.2015625,1.4453125 5.6453125,2.1375 L5.0875,1.340625 C4.928125,1.1140625 4.6125,1.0578125 4.384375,1.2171875 C4.1578125,1.3765625 4.1015625,1.6921875 4.2609375,1.9203125 L11.990625,12.9609375 C12.15,13.1875 12.465625,13.24375 12.69375,13.084375 C12.9203125,12.925 12.9765625,12.609375 12.8171875,12.38125 L11.8890625,11.0515625 Z" id="路径" fill="#B6D3FF"></path>
                    </g>
                </g>
            </g>
        </g>
    </g>
</svg>