<?xml version="1.0" encoding="UTF-8"?>
<svg width="23px" height="24px" viewBox="0 0 23 24" version="1.1" xmlns="http://www.w3.org/2000/svg" xmlns:xlink="http://www.w3.org/1999/xlink">
    <!-- Generator: Sketch 59.1 (86144) - https://sketch.com -->
    <title>箭头-右</title>
    <desc>Created with Sketch.</desc>
    <g id="图标库" stroke="none" stroke-width="1" fill="none" fill-rule="evenodd">
        <g id="VDCP" transform="translate(-44.000000, -374.000000)" fill-rule="nonzero">
            <g id="视频会议" transform="translate(15.000000, 5.000000)">
                <g id="箭头" transform="translate(15.000000, 335.000000)">
                    <g id="箭头-右" transform="translate(26.000000, 46.000000) rotate(90.000000) translate(-26.000000, -46.000000) translate(10.000000, 30.000000)">
                        <rect id="矩形" fill="#000000" opacity="0" x="0" y="0" width="32" height="32"></rect>
                        <path d="M27.15,15.4625 C27.15,15.9875 26.965625,16.434375 26.6,16.8 L16.928125,26.4875 C16.540625,26.853125 16.090625,27.0375 15.575,27.0375 C15.05,27.0375 14.603125,26.853125 14.2375,26.4875 L4.565625,16.8 C4.190625,16.44375 4,15.996875 4,15.4625 C4,14.9375 4.1875,14.4875 4.565625,14.109375 L5.665625,12.99375 C6.053125,12.628125 6.503125,12.44375 7.01875,12.44375 C7.54375,12.44375 7.990625,12.628125 8.35625,12.99375 L12.725,17.3625 L12.725,6.903125 C12.725,6.3875 12.9125,5.94375 13.290625,5.565625 C13.665625,5.190625 14.1125,5 14.628125,5 L16.53125,5 C17.046875,5 17.490625,5.1875 17.86875,5.565625 C18.24375,5.94375 18.434375,6.3875 18.434375,6.903125 L18.434375,17.3625 L22.803125,12.99375 C23.16875,12.628125 23.615625,12.44375 24.140625,12.44375 C24.65625,12.44375 25.10625,12.628125 25.49375,12.99375 L26.609375,14.109375 C26.965625,14.496875 27.15,14.946875 27.15,15.4625 L27.15,15.4625 Z" id="路径" fill="#1A96D8" transform="translate(15.575000, 16.018750) rotate(180.000000) translate(-15.575000, -16.018750) "></path>
                    </g>
                </g>
            </g>
        </g>
    </g>
</svg>