<?xml version="1.0" encoding="UTF-8"?>
<svg width="16px" height="16px" viewBox="0 0 16 16" version="1.1" xmlns="http://www.w3.org/2000/svg" xmlns:xlink="http://www.w3.org/1999/xlink">
    <!-- Generator: Sketch 59.1 (86144) - https://sketch.com -->
    <title>轮询</title>
    <desc>Created with Sketch.</desc>
    <g id="图标库" stroke="none" stroke-width="1" fill="none" fill-rule="evenodd">
        <g id="VDCP" transform="translate(-230.000000, -210.000000)" fill-rule="nonzero">
            <g id="视频会议" transform="translate(15.000000, 5.000000)">
                <g id="会场" transform="translate(15.000000, 170.000000)">
                    <g id="轮询" transform="translate(200.000000, 35.000000)">
                        <rect id="矩形" fill="#000000" opacity="0" x="0" y="0" width="16" height="16"></rect>
                        <path d="M14.9711097,11.98982 L15.3022488,11.9194846 C15.4862297,11.8803031 15.6771381,11.9422505 15.8030608,12.0819919 C15.9289834,12.2217333 15.9707895,12.4180386 15.9127313,12.5969614 C15.854673,12.7758843 15.7055707,12.9102422 15.5215898,12.9494237 L14.3198037,13.2043895 C13.8456141,13.3049138 13.3796304,13.0023006 13.2785934,12.52822 L13.0227131,11.3266977 C12.9632646,11.0426313 13.1448936,10.7640255 13.4287956,10.7037965 C13.7126976,10.6435675 13.9918015,10.8244302 14.0528105,11.1081655 L14.1085161,11.3698309 C14.6495898,10.3742111 14.9322327,9.25875441 14.9305613,8.12560978 C14.9305613,4.36734229 11.8838772,1.32065822 8.12560973,1.32065822 C6.81721922,1.31874367 5.53628695,1.69588256 4.43767766,2.4064788 C4.42712735,2.41454979 4.41668254,2.42265594 4.40541129,2.43002358 C4.16185688,2.58961413 3.83504332,2.52154797 3.67545276,2.27799357 C3.51586221,2.03443916 3.58392835,1.7076256 3.82748275,1.54803504 C3.82924114,1.54690967 3.83099953,1.54604806 3.83275791,1.54494028 L3.83099953,1.5421972 C5.1074538,0.707055948 6.60022743,0.263329909 8.12560973,0.265618096 C12.4665534,0.265618096 15.9856011,3.78466612 15.9856011,8.12560978 C15.9876011,9.47977642 15.6380395,10.8112718 14.9711097,11.98982 L14.9711097,11.98982 Z" id="路径" fill="#B6D3FF"></path>
                        <path d="M5.13635452,8.12560978 C5.13635452,6.47468971 6.47468967,5.13635457 8.12560973,5.13635457 C9.77652979,5.13635457 11.1148649,6.47468971 11.1148649,8.12560978 C11.1148649,9.77652984 9.77652979,11.114865 8.12560973,11.114865 C6.47468967,11.114865 5.13635452,9.77652984 5.13635452,8.12560978 L5.13635452,8.12560978 Z" id="路径" fill="#B6D3FF"></path>
                        <path d="M10.0598337,8.12560978 C10.0598337,7.05736738 9.19385212,6.19138582 8.12560973,6.19138582 C7.05736734,6.19138582 6.19138577,7.05736738 6.19138577,8.12560978 C6.19138577,9.19385217 7.05736734,10.0598337 8.12560973,10.0598337 C9.19385212,10.0598337 10.0598337,9.19385217 10.0598337,8.12560978 Z" id="路径" fill="#B6D3FF"></path>
                        <path d="M8.12560973,14.9305613 C9.44625106,14.9325592 10.7386623,14.5483942 11.843786,13.8253458 L11.8482699,13.8322211 C11.8533868,13.8285988 11.8581169,13.8246424 11.863392,13.821196 C12.0293457,13.7108083 12.243362,13.7034367 12.4165178,13.8021439 C12.5896736,13.9008511 12.6923685,14.0887636 12.6819329,14.2878042 C12.6714974,14.4868447 12.5497154,14.6629881 12.367187,14.7430471 C11.1021766,15.5563721 9.62951936,15.9877785 8.12560973,15.9856009 C3.78466607,15.9856009 0.265618264,12.4665534 0.265618264,8.12560978 C0.26361101,6.77040929 0.613705197,5.43793187 1.28160443,4.25874441 L0.952680854,4.32860506 C0.670824369,4.38411561 0.396594047,4.20311798 0.336832024,3.92213221 C0.277070001,3.64114645 0.453904374,3.36421321 0.733955292,3.30021335 L1.93236529,3.04563431 C2.4055204,2.94545042 2.87032533,3.24772672 2.97063913,3.72085431 L3.22581602,4.92067102 C3.26573228,5.10453726 3.20421861,5.29570713 3.06456751,5.42179311 C2.92491642,5.54787909 2.72847639,5.58960637 2.54963053,5.53117469 C2.37078467,5.47274301 2.23687319,5.32308484 2.19860242,5.13886906 L2.14358254,4.87989406 C1.6019449,5.87587177 1.3189899,6.99188135 1.32065817,8.12560978 C1.32065817,11.8838773 4.36734225,14.9305613 8.12560973,14.9305613 Z" id="路径" fill="#B6D3FF"></path>
                    </g>
                </g>
            </g>
        </g>
    </g>
</svg>