<?xml version="1.0" encoding="UTF-8"?>
<svg width="62px" height="62px" viewBox="0 0 62 62" version="1.1" xmlns="http://www.w3.org/2000/svg" xmlns:xlink="http://www.w3.org/1999/xlink">
    <!-- Generator: Sketch 59.1 (86144) - https://sketch.com -->
    <title>通话记录</title>
    <desc>Created with Sketch.</desc>
    <g id="图标库" stroke="none" stroke-width="1" fill="none" fill-rule="evenodd">
        <g id="VDCP" transform="translate(-141.000000, -81.000000)">
            <g id="视频会议" transform="translate(15.000000, 5.000000)">
                <g id="拨号盘" transform="translate(15.000000, 39.000000)">
                    <g id="通话记录" transform="translate(111.000000, 37.000000)">
                        <circle id="椭圆形" fill-opacity="0.6" fill="#2EA0FF" cx="31" cy="31" r="31"></circle>
                        <path d="M35.144,26.744 L28.472,26.744 C27.608,26.744 26.912,26.048 26.912,25.184 L26.912,18.512 C26.912,17.888 27.416,17.384 28.04,17.384 C28.664,17.384 29.168,17.888 29.168,18.512 L29.168,24.488 L35.144,24.488 C35.768,24.488 36.272,24.992 36.272,25.616 C36.272,26.24 35.768,26.744 35.144,26.744 L35.144,26.744 Z M45.88,26.384 L38.2,34.064 C37.768,34.496 37.048,34.496 36.592,34.064 C36.16,33.632 36.16,32.912 36.592,32.456 L44.103,24.944 L40.28,24.944 C39.656,24.944 39.152,24.44 39.152,23.816 C39.152,23.192 39.656,22.688 40.28,22.688 L46.976,22.688 C47.84,22.688 48.536,23.384 48.536,24.248 L48.536,30.944 C48.512,31.568 48.008,32.072 47.384,32.072 C46.76,32.072 46.256,31.568 46.256,30.944 L46.256,24.944 L46.0126389,24.9440871 C46.306213,25.3948086 46.262,26.002 45.88,26.384 Z M37.856,15.368 C38.288,15.8 38.288,16.52 37.856,16.976 L30.176,24.656 C29.744,25.088 29.024,25.088 28.568,24.656 C28.112,24.224 28.112,23.504 28.568,23.048 L36.248,15.368 C36.68,14.936 37.4,14.936 37.856,15.368 Z" id="形状" fill="#FFFFFF" fill-rule="nonzero"></path>
                        <path d="M15.3301127,16.6913309 C17.7525822,15.2930893 19.6140588,16.0687096 21.4755353,18.5400697 C23.6642578,21.4491772 25.1347392,24.2902851 22.7781439,26.3345228 C22.7781439,26.3345228 20.2069263,28.5020098 26.2248505,34.8833463 C33.2733868,42.3038016 35.7744803,39.1885704 35.7744803,39.1885704 C38.3584478,36.6088359 40.2879235,38.249326 43.2097617,40.414688 C46.1294749,42.577925 47.0559633,44.7645368 44.5421199,47.9031429 C39.7014309,53.9508564 28.332824,45.4232828 23.9128796,41.1116838 C23.9128796,41.1116838 17.1533397,34.5539733 14.9029931,30.4272482 L13.6726336,28.2215114 C12.0534039,25.0552805 11.3139133,21.498052 12.8162694,18.994817 C12.8162694,18.994817 13.4346366,17.7878243 15.3301127,16.6913309 Z" id="路径" fill="#FFFFFF" fill-rule="nonzero"></path>
                    </g>
                </g>
            </g>
        </g>
    </g>
</svg>